<svg width="64" height="64" viewBox="0 0 64 64" fill="none" xmlns="http://www.w3.org/2000/svg">
<rect width="64" height="64" rx="32" fill="#AFE2FC"/>
<path d="M21.333 34.6663V33.333C21.333 32.2721 21.7544 31.2547 22.5046 30.5046C23.2547 29.7544 24.2721 29.333 25.333 29.333H26.6663C27.02 29.333 27.3591 29.4735 27.6091 29.7235C27.8592 29.9736 27.9997 30.3127 27.9997 30.6663V37.333C27.9997 37.6866 27.8592 38.0258 27.6091 38.2758C27.3591 38.5259 27.02 38.6663 26.6663 38.6663H25.333C24.2721 38.6663 23.2547 38.2449 22.5046 37.4948C21.7544 36.7446 21.333 35.7272 21.333 34.6663V34.6663ZM42.6663 34.6663V33.333C42.6663 32.2721 42.2449 31.2547 41.4948 30.5046C40.7446 29.7544 39.7272 29.333 38.6663 29.333H37.333C36.9794 29.333 36.6402 29.4735 36.3902 29.7235C36.1401 29.9736 35.9997 30.3127 35.9997 30.6663V37.333C35.9997 37.6866 36.1401 38.0258 36.3902 38.2758C36.6402 38.5259 36.9794 38.6663 37.333 38.6663H38.6663C39.7272 38.6663 40.7446 38.2449 41.4948 37.4948C42.2449 36.7446 42.6663 35.7272 42.6663 34.6663V34.6663Z" stroke="#033651" stroke-width="2" stroke-linecap="round" stroke-linejoin="round"/>
<path d="M21.3337 34.6667L21.0804 32C20.9375 30.4795 21.1135 28.946 21.5973 27.4975C22.081 26.0489 22.8618 24.7173 23.8896 23.5878C24.9175 22.4583 26.1698 21.5558 27.5664 20.938C28.963 20.3202 30.4732 20.0007 32.0004 20V20C33.5275 20.0007 35.0377 20.3202 36.4343 20.938C37.831 21.5558 39.0833 22.4583 40.1111 23.5878C41.1389 24.7173 41.9197 26.0489 42.4034 27.4975C42.8872 28.946 43.0632 30.4795 42.9204 32L42.667 34.6667" stroke="#033651" stroke-width="2" stroke-linecap="round" stroke-linejoin="round"/>
<path d="M38.6667 38.667V40.0003C38.707 40.6625 38.4846 41.3138 38.0478 41.813C37.611 42.3122 36.995 42.6191 36.3333 42.667H32" stroke="#033651" stroke-width="2" stroke-linecap="round" stroke-linejoin="round"/>
</svg>
