<svg width="64" height="64" viewBox="0 0 64 64" fill="none" xmlns="http://www.w3.org/2000/svg">
<rect width="64" height="64" rx="32" fill="#AFE2FC"/>
<path d="M41.3337 43.3329C35.2378 41.5596 28.7629 41.5596 22.667 43.3329" stroke="#033651" stroke-width="2" stroke-linecap="round" stroke-linejoin="round"/>
<path d="M44 35.9997V22.6663C44 22.3127 43.8595 21.9736 43.6095 21.7235C43.3594 21.4735 43.0203 21.333 42.6667 21.333H21.3333C20.9797 21.333 20.6406 21.4735 20.3905 21.7235C20.1405 21.9736 20 22.3127 20 22.6663V35.9997C20 36.3533 20.1405 36.6924 20.3905 36.9425C20.6406 37.1925 20.9797 37.333 21.3333 37.333H42.6667C43.0203 37.333 43.3594 37.1925 43.6095 36.9425C43.8595 36.6924 44 36.3533 44 35.9997ZM29.3333 37.333V42.1063C31.1086 41.973 32.8914 41.973 34.6667 42.1063V37.333H29.3333Z" stroke="#033651" stroke-width="2" stroke-linecap="round" stroke-linejoin="round"/>
</svg>
