<svg width="64" height="64" viewBox="0 0 64 64" fill="none" xmlns="http://www.w3.org/2000/svg">
<rect width="64" height="64" rx="32" fill="#AFE2FC"/>
<path d="M44 21.3333V40.6667C44 41.5507 43.6488 42.3986 43.0237 43.0237C42.3986 43.6488 41.5507 44 40.6667 44C39.7826 44 38.9348 43.6488 38.3096 43.0237C37.6845 42.3986 37.3333 41.5507 37.3333 40.6667V37.3333H22.6667V21.3333C22.6667 20.9797 22.8071 20.6406 23.0572 20.3905C23.3072 20.1405 23.6464 20 24 20H42.6667C43.0203 20 43.3594 20.1405 43.6095 20.3905C43.8595 20.6406 44 20.9797 44 21.3333ZM37.3333 40.6667V37.3333H20V40.6667C20 41.5507 20.3512 42.3986 20.9763 43.0237C21.6014 43.6488 22.4493 44 23.3333 44H40.6667C39.7826 44 38.9348 43.6488 38.3096 43.0237C37.6845 42.3986 37.3333 41.5507 37.3333 40.6667Z" stroke="#033651" stroke-width="2" stroke-linecap="round" stroke-linejoin="round"/>
<path d="M29.333 29.3337L31.9997 32.0003L37.333 26.667" stroke="#033651" stroke-width="2" stroke-linecap="round" stroke-linejoin="round"/>
</svg>
