<svg width="64" height="64" viewBox="0 0 64 64" fill="none" xmlns="http://www.w3.org/2000/svg">
<rect width="64" height="64" rx="32" fill="#AFE2FC"/>
<path d="M34.6663 25.333H31.333C30.8026 25.333 30.2939 25.5437 29.9188 25.9188C29.5437 26.2939 29.333 26.8026 29.333 27.333V27.333C29.333 27.8634 29.5437 28.3721 29.9188 28.7472C30.2939 29.1223 30.8026 29.333 31.333 29.333H32.6663C33.1968 29.333 33.7055 29.5437 34.0806 29.9188C34.4556 30.2939 34.6663 30.8026 34.6663 31.333V31.333C34.6663 31.8634 34.4556 32.3721 34.0806 32.7472C33.7055 33.1223 33.1968 33.333 32.6663 33.333H29.333" stroke="#033651" stroke-width="2" stroke-linecap="round" stroke-linejoin="round"/>
<path d="M24 44H40M42.6667 38.6667H21.3333C20.9797 38.6667 20.6406 38.5262 20.3905 38.2761C20.1405 38.0261 20 37.687 20 37.3333V21.3333C20 20.9797 20.1405 20.6406 20.3905 20.3905C20.6406 20.1405 20.9797 20 21.3333 20H42.6667C43.0203 20 43.3594 20.1405 43.6095 20.3905C43.8595 20.6406 44 20.9797 44 21.3333V37.3333C44 37.687 43.8595 38.0261 43.6095 38.2761C43.3594 38.5262 43.0203 38.6667 42.6667 38.6667ZM32 24V25.3333V24ZM32 33.3333V34.6667V33.3333Z" stroke="#033651" stroke-width="2" stroke-linecap="round" stroke-linejoin="round"/>
</svg>
