<svg width="100" height="100" viewBox="0 0 100 100" fill="none" xmlns="http://www.w3.org/2000/svg">
<path d="M60.4864 55.3215C59.4154 52.3785 54.7029 41.11 54.4454 40.3795C54.3189 40.0231 54.1427 39.6865 53.9219 39.3795C52.1249 37.988 49.3219 35.9355 47.3389 31.819C46.5389 30.162 46.3204 29.019 46.4099 26.669C46.5337 25.775 46.9896 24.9604 47.6869 24.3875L47.9239 24.1825C45.8194 19.7325 46.2429 19.673 42.4994 10.987C41.9929 9.81146 41.5144 8.70196 41.1439 7.90046C40.5727 6.6774 39.8417 5.53559 38.9699 4.50496C38.5983 4.09188 38.1182 3.7913 37.5843 3.63733C37.0504 3.48337 36.484 3.4822 35.9494 3.63396C32.6544 4.45796 18.6569 9.78796 13.4724 12.7C9.14393 15.1325 10.1824 17.7065 11.2789 20.4325C12.5344 23.5535 14.7824 29.9915 19.3384 40.189C20.3137 42.2499 21.1727 44.3639 21.9114 46.521C22.0614 47 22.1759 47.2945 22.6779 47.2175C22.8083 47.1972 22.941 47.1972 23.0714 47.2175C23.5835 47.2436 24.0762 47.4222 24.486 47.7304C24.8959 48.0385 25.2042 48.4622 25.3714 48.947C25.7844 49.94 25.7039 50.847 25.5804 52.222C25.5598 52.654 25.5159 53.0846 25.4489 53.512C25.4213 53.584 25.41 53.6613 25.4158 53.7382C25.4217 53.8152 25.4446 53.8898 25.4829 53.9568C25.5212 54.0238 25.5739 54.0815 25.6372 54.1256C25.7005 54.1697 25.7728 54.1992 25.8489 54.212C26.9584 54.579 28.5389 54.748 29.3559 56.1485C29.9244 57.124 29.9659 58.522 29.4794 60.3025C29.0953 61.4775 28.6322 62.6253 28.0934 63.738C28.4505 63.6714 28.8114 63.6273 29.1739 63.606C30.7319 63.606 31.5084 65.2745 31.7694 65.992C32.2036 67.3167 32.1504 68.753 31.6194 70.042C31.2909 71.05 31.3694 70.988 31.6984 71.7345C32.7204 74.0395 33.3364 75.4315 34.7034 76.126C35.2248 76.4295 35.8143 76.5967 36.4174 76.612C37.2962 76.5498 38.1635 76.3769 38.9989 76.0975C39.1489 76.056 42.7809 74.6225 42.8159 74.6085C50.8364 71.3365 55.3704 69.267 59.7249 67.1915C65.0399 64.6625 63.4064 63.341 60.4864 55.3215Z" fill="#AFE2FC"/>
<path d="M38.2559 77.7892C38.2559 77.7892 51.2429 72.9482 53.9754 71.6473C56.7079 70.3463 59.7529 69.1473 59.7529 69.1473C59.7529 69.1473 64.5679 67.1172 64.2294 63.8643C63.8909 60.6113 62.6939 58.6333 61.9129 56.5513C61.1319 54.4692 58.5039 47.8588 58.5039 47.8588C58.5039 47.8588 59.5449 45.1523 58.1654 43.4343C56.9486 41.8963 55.5205 40.5382 53.9234 39.4003C52.1799 38.1003 48.6139 35.6002 47.3389 31.8272C46.0639 28.0542 45.7254 26.8058 46.4804 25.6348C47.2354 24.4638 48.9004 23.0582 49.9674 23.6847C49.9674 23.6847 51.1909 23.5288 51.6334 24.3613C52.0759 25.1938 53.4289 28.1088 54.5219 28.6553C55.6149 29.2018 57.4109 31.3102 58.8684 31.8307C60.3259 32.3512 63.3444 33.7568 64.6979 35.3962C66.0514 37.0357 67.5864 39.4823 68.4714 40.8098C69.3564 42.1373 70.6569 43.6203 71.6469 44.8178C72.6369 46.0153 74.5189 49.4727 75.4199 51.9742C76.1495 54.0165 76.7493 56.1028 77.2159 58.2208C77.5004 59.4963 78.4909 63.4517 78.6474 64.3882C78.8039 65.3247 80.1049 69.2553 80.0269 70.3223C80.0269 70.3223 80.2429 72.3003 80.2349 73.4453C80.2295 74.3873 80.3973 75.3223 80.7299 76.2038C81.0509 77.0598 83.0979 81.7213 83.8269 83.1788C84.5559 84.6363 91.0359 96.9197 91.0359 96.9197C91.0359 96.9197 85.6484 96.8418 82.4214 96.7897C79.1944 96.7377 75.8369 97.2842 73.7809 96.7113C71.7249 96.1383 70.1114 97.4662 67.6129 97.0757C65.1144 96.6852 59.5969 97.4662 59.0764 97.0498C59.0764 97.0498 56.7079 90.5437 56.4999 89.9193C56.2919 89.2948 56.1874 88.0692 55.8229 87.8627C55.6146 87.7445 55.4449 87.5687 55.3341 87.3563C55.2233 87.144 55.1762 86.9042 55.1984 86.6658C55.1984 86.6658 50.2799 84.8702 49.1864 84.5057C48.0929 84.1413 45.4389 81.8768 43.9294 81.3058C42.4199 80.7348 39.5574 79.5848 38.2559 77.7892Z" fill="#FAFAFA"/>
<path d="M28.7173 63.8957C29.8673 63.1722 32.4468 65.6957 31.6348 69.2012C31.0993 71.5137 29.6098 72.5187 30.1848 74.1467C30.2027 74.2202 30.2375 74.2884 30.2866 74.3459C30.3357 74.4034 30.3976 74.4486 30.4673 74.4777C30.5798 74.5252 30.6343 74.7087 30.7353 74.8612C27.2498 75.8417 24.0678 71.5282 24.6403 69.5932C24.8938 69.8137 25.1318 70.0562 25.4033 70.2497C25.4878 70.3341 25.5962 70.3904 25.7138 70.411C25.8314 70.4315 25.9525 70.4152 26.0605 70.3643C26.1685 70.3135 26.2582 70.2305 26.3173 70.1268C26.3765 70.023 26.4021 69.9036 26.3908 69.7847C26.6238 66.3312 28.1283 64.2662 28.7173 63.8957Z" fill="#FAFAFA"/>
<path d="M29.3714 56.5584C29.7714 57.4419 29.5254 59.2709 29.3214 60.1804C29.0349 61.2262 28.6345 62.2374 28.1274 63.1959C28.0064 63.4484 27.3774 63.1224 26.3214 64.0064C25.7143 64.6483 25.2 65.372 24.7934 66.1564C22.9549 64.6169 20.5434 63.0859 21.0934 60.2344C21.2475 60.5185 21.4796 60.7526 21.7624 60.9092C22.0452 61.0657 22.3668 61.1381 22.6894 61.1179C23.2774 61.1249 23.1194 60.5934 23.2124 60.0679C23.4489 58.7314 23.8989 57.7009 25.0339 55.5954C25.3979 54.9204 26.2969 54.3369 26.9869 54.6379C28.6689 55.3714 28.9084 55.5419 29.3714 56.5584Z" fill="#FAFAFA"/>
<path d="M24.6219 48.2262C25.8029 49.3082 25.5389 51.5162 25.2124 53.6072C25.1414 54.0617 24.9689 53.5297 23.4474 54.5492C22.7526 55.1602 22.1349 55.8537 21.6079 56.6142C21.3689 56.9997 21.5234 57.2832 20.5329 56.9752C19.2329 56.5707 19.0214 55.7897 18.6504 55.1082C19.2284 55.2142 19.8259 55.4442 19.8534 54.8582C19.9264 53.2982 19.6034 48.8362 21.1739 47.8132C21.711 47.4831 22.3439 47.3443 22.9698 47.4193C23.5958 47.4942 24.178 47.7786 24.6219 48.2262Z" fill="#FAFAFA"/>
<path d="M19.3635 54.7161C19.638 52.0491 18.879 53.0121 20.0875 48.1406C19.1 48.3871 18.3875 50.3801 18.2375 51.4441C18.0215 52.9791 17.8185 54.6891 19.3635 54.7161Z" fill="#FAFAFA"/>
<path d="M25.4419 54.3739C25.1469 54.3829 24.2044 54.1004 22.8704 55.7954C19.3904 60.2189 22.7204 60.9844 22.6789 60.3259C22.6094 59.2499 24.0099 55.4914 25.4419 54.3739Z" fill="#FAFAFA"/>
<path d="M25.8818 69.9171C25.9768 67.6611 26.5108 65.5941 28.0318 63.8271C26.5863 63.8961 25.9818 64.9971 25.1203 66.7501C24.5168 67.9746 24.7078 69.5286 25.8818 69.9171Z" fill="#FAFAFA"/>
<path d="M52.4756 29.6724C53.5001 28.3564 54.0506 28.8559 53.6396 28.2279C51.1706 24.4589 51.5116 24.0979 50.4896 23.9854C50.1701 24.0794 50.0791 24.0854 49.7836 24.5299C49.6204 24.7261 49.5035 24.9565 49.4415 25.204C49.3795 25.4516 49.3741 25.7099 49.4256 25.9599C49.664 26.9192 50.0648 27.8307 50.6106 28.6549C51.8096 30.4094 51.9076 30.3999 52.4756 29.6724Z" fill="#FAFAFA"/>
<path d="M33.6534 3.75901C14.1034 11.1905 7.27142 13.176 9.31642 19.466C12.4024 28.9595 18.9364 42.8 20.5119 47.295C20.6214 47.6075 20.6479 47.495 21.8384 46.858C18.4859 38.0165 19.5749 42.115 10.9994 20.1545C8.87992 14.726 10.6859 13.485 21.3544 9.02801C21.3649 9.02301 30.2814 5.36401 35.6914 3.75901C36.1664 3.57929 36.6811 3.53087 37.1813 3.61886C37.6815 3.70684 38.1487 3.92798 38.5339 4.25901C40.0684 5.55901 41.2279 8.35501 42.1979 10.53C45.0739 16.98 45.6479 19.4595 47.6519 23.7865L48.2139 23.4865C45.7994 17.677 45.5839 16.595 42.0594 8.43751C41.1724 6.38501 40.4594 5.00801 39.6674 4.14251C38.0899 2.42301 36.3734 2.72501 33.6534 3.75901Z" fill="white"/>
<path d="M59.6524 68.9819C62.5524 67.5784 64.6024 65.8199 63.9024 63.0229C63.3279 60.7229 61.0024 54.7229 60.9979 54.7129C54.7979 39.4084 55.8659 41.2434 54.3574 40.2764C54.3844 40.3834 59.8279 53.5794 60.0104 54.0874C62.1309 59.9949 63.6104 62.5669 63.0424 64.4874C62.8669 65.0784 62.4034 65.6804 60.8999 66.6589C58.5204 68.2089 40.5194 75.7089 38.7164 76.3389C34.1689 77.9239 32.9129 74.9584 31.3714 71.4919C31.0324 72.1704 30.3509 73.2344 30.6859 73.9169C31.2479 73.6344 31.6809 79.0294 36.2089 78.0534C39.4804 77.3499 57.4924 70.0269 59.6524 68.9819Z" fill="white"/>
<path d="M40.8994 30.0763C40.8064 29.8508 40.6769 29.8403 40.4759 29.9393C38.4234 30.9498 39.1834 30.6778 37.4994 29.2693C36.9464 28.8063 37.1564 28.8193 37.6374 27.4353C37.7994 26.9693 37.5099 27.0353 35.8374 26.3668C35.4874 26.2258 35.5024 26.3958 35.0124 27.7693C34.8589 28.2003 34.6734 28.0493 33.1184 28.0588C32.7359 28.0588 32.6839 27.9453 32.2154 26.5733C32.0654 26.1298 31.9324 26.2898 30.3389 26.9188C30.0774 27.0218 30.2389 27.1333 30.6639 28.2433C31.0034 29.1363 30.0294 28.7933 29.1679 30.0878C28.7904 30.6548 27.3839 29.2103 27.1584 29.6713C25.9584 32.1268 26.5524 31.1103 27.8084 32.0498C28.2084 32.3498 27.9529 32.7528 27.8519 34.5428C27.8299 34.9263 27.7159 34.9768 26.4959 35.5068C25.9999 35.7223 26.3459 36.1033 26.9459 37.3833C27.0689 37.6458 27.2099 37.6588 28.4524 37.0333C29.2234 36.6453 29.1744 37.4738 30.1174 38.0958C30.6789 38.4668 30.4644 38.5263 29.7389 39.9918C29.5669 40.3418 29.7274 40.3378 31.2339 41.0848C31.5544 41.2438 31.5724 41.0413 32.2104 39.6878C32.5389 38.9908 32.8069 39.6188 34.5019 39.5653C34.7979 39.5558 34.9289 39.7913 35.5144 41.2478C35.7609 41.8603 36.0054 41.5978 37.4319 40.9263C37.8319 40.7398 37.4979 40.5933 36.9064 38.9138C36.9704 38.4638 37.0844 38.6813 38.0674 37.7043C38.4674 37.3073 38.5284 37.3893 40.0704 38.2333C40.4624 38.4473 40.3599 38.1993 41.1439 36.7238C41.2859 36.4558 41.2074 36.4618 40.0939 35.9268C39.0804 35.4393 39.9939 34.9013 39.7329 33.2163C39.6829 32.8863 39.8569 32.7898 41.4074 32.0618C41.7879 31.8838 41.5799 31.7323 40.8994 30.0763ZM37.2259 33.9688C37.1615 34.7029 36.9026 35.4066 36.4759 36.0073C35.0214 38.0928 30.5609 37.4783 30.3024 34.5123C29.8074 28.8133 37.5969 29.3333 37.2259 33.9688Z" fill="white"/>
<path d="M87.4997 89.9283C85.0767 85.5588 82.0632 78.8593 81.5417 77.7913C80.908 76.4985 80.5396 75.0918 80.4582 73.6543C80.3257 71.2768 80.4917 71.2103 79.5777 66.7508C79.3987 65.8773 79.0537 65.0363 78.9002 64.1598C78.6077 62.6212 78.2157 61.1032 77.7267 59.6153C77.0502 57.4488 77.3647 56.5758 76.2712 53.5913C72.6332 43.6613 71.4617 45.0683 68.2552 40.2068C66.6312 37.7448 65.4377 34.0713 60.3402 32.2293C57.7642 31.2983 55.7762 29.0538 54.9007 28.6238C52.6632 27.5238 52.4007 23.1978 50.2132 23.4873C50.0272 23.5118 50.0057 23.1373 48.9472 23.2823C48.2472 23.3783 48.8232 22.9933 42.6032 8.61881C40.9307 4.75331 39.4397 1.51081 35.3372 2.81881C35.3267 2.82181 22.1062 7.49581 14.6152 11.0688C11.6497 12.4803 8.40968 14.0383 8.57018 17.7028C8.72418 21.2203 18.2607 42.9268 18.4807 43.5093C20.4177 48.6323 20.2152 47.1958 19.3077 47.9733C17.9832 49.1083 17.5302 51.4888 17.6387 53.3068C17.7425 53.9119 17.9363 54.4981 18.2137 55.0458C18.4547 55.6458 18.7812 57.2278 20.7057 57.5223C21.3057 57.6138 21.0937 57.3188 20.8027 58.9688C20.7931 59.3013 20.7509 59.632 20.6767 59.9563C20.1667 61.3258 21.0202 63.6248 22.2182 64.6813C25.1857 67.2998 24.5782 65.9313 24.2647 67.8683C24.2022 68.2548 24.2607 68.6683 24.1647 69.0413C23.4772 71.7943 26.3112 75.4343 29.6712 75.5493C31.4072 75.6083 30.6377 74.8993 31.3312 76.1273C33.8257 80.5438 37.6972 77.7743 38.2312 78.2628C41.4872 81.2523 41.8812 80.1988 47.3767 83.8568C48.6882 84.7298 49.1967 84.7068 52.1917 85.8653C54.7537 86.8548 53.9822 86.5723 54.9342 86.8283C54.8102 87.8663 55.5287 87.8413 55.7587 88.5478C57.1797 92.9138 57.0552 92.7228 57.5537 93.8118C58.4037 95.6693 58.6037 97.7398 59.1712 97.4773C59.5597 97.2973 57.4237 92.0108 57.2237 91.4188C56.7187 89.9243 57.0982 90.4818 56.2052 88.1818C57.5267 88.3318 58.4552 88.8008 62.5582 88.3448C63.6817 88.2198 63.5367 88.0623 63.6697 87.8558C63.5497 87.7943 63.4252 87.6723 63.3117 87.6818C62.9932 87.7088 62.6807 87.8223 62.3617 87.8468C58.4492 88.1468 57.8962 87.9083 56.7862 87.7413C56.0632 87.6328 55.4677 87.6838 55.4707 86.9913C58.6297 87.0563 59.5472 87.1548 60.6677 86.7613C61.1472 86.5933 60.9472 86.1583 60.5102 86.2358C55.3762 87.1478 53.1102 85.5813 51.3382 84.9193C50.6507 84.6623 49.9352 84.4818 49.2487 84.2243C47.7487 83.6613 45.8607 82.1198 44.4432 81.3818C41.3932 79.7933 40.2872 79.6528 38.5872 77.9693C39.5307 77.5158 40.1112 77.4193 41.5607 76.8693C46.8322 74.8858 53.8572 71.9223 57.4407 70.4873C58.2407 70.1668 58.8107 69.9553 59.1627 69.8058C59.6477 69.6003 59.6887 69.7493 59.8127 69.9243C64.1447 76.1803 66.2442 77.5743 67.2602 78.0198C67.3013 78.0378 67.3362 78.0674 67.3606 78.105C67.385 78.1426 67.3979 78.1865 67.3977 78.2313C67.3602 84.8718 61.9022 84.9583 62.4157 85.7313C62.4836 85.7934 62.5692 85.8327 62.6605 85.8438C62.7518 85.855 62.8444 85.8373 62.9252 85.7933C65.2752 84.6498 67.6802 83.9048 67.9367 78.3178C71.6522 79.1578 72.8687 79.7213 76.0527 77.5678C76.1167 77.5243 76.1002 77.3613 76.1207 77.2533C76.006 77.2354 75.8902 77.2257 75.7742 77.2243C75.4511 77.4592 75.111 77.6697 74.7567 77.8543C73.5792 78.2543 72.2927 78.6263 71.1677 78.4658C68.0387 78.0188 67.7057 77.6618 66.1427 76.5728C65.3495 75.9164 64.6287 75.177 63.9927 74.3673C62.6897 72.8353 61.1562 71.0128 60.5967 69.9293C60.3222 69.3983 60.2142 69.2958 60.3627 69.2178C64.2757 67.1538 65.3962 65.1238 63.7792 60.8143C58.8897 47.7803 58.5442 48.6848 59.0037 46.9998C60.0682 43.0913 54.5377 39.5418 54.5272 39.5338C49.7127 35.6303 48.3152 34.6498 46.6812 29.1838C45.6267 25.6528 48.0312 23.4478 49.6642 23.8838C49.289 24.2011 49.0241 24.6291 48.9073 25.1064C48.7905 25.5836 48.8279 26.0856 49.0142 26.5403C49.48 27.9882 50.2662 29.3125 51.3142 30.4148C52.4387 31.5288 52.8112 29.5648 54.0527 29.1368C54.5772 28.9553 54.4577 28.7748 57.0312 30.9643C60.0642 33.5458 63.5362 32.6098 66.6312 38.6588C69.2957 43.8683 72.6627 44.5263 75.5997 53.3213C76.8827 57.1648 76.5072 57.2783 77.0667 59.3213C78.6952 65.2678 79.3867 68.4793 79.6637 70.3393C80.0452 72.9003 79.7352 73.7468 80.1182 75.2933C80.5982 77.2303 81.6547 79.3843 82.8352 81.8903C85.5702 87.6978 89.2672 94.1973 90.1057 95.6903C90.9392 97.1738 91.0282 97.3113 91.2892 97.1728C91.6682 96.9643 91.5892 97.3068 87.4997 89.9283ZM18.2367 51.4438C18.3867 50.3798 19.0997 48.3868 20.0867 48.1403C18.8782 53.0118 19.6367 52.0488 19.3627 54.7158C17.8182 54.6888 18.0212 52.9788 18.2367 51.4438ZM20.5327 56.9748C19.2327 56.5703 19.0212 55.7893 18.6502 55.1078C19.2282 55.2138 19.8257 55.4438 19.8532 54.8578C19.9262 53.2978 19.6032 48.8363 21.1737 47.8128C21.7111 47.4822 22.3445 47.3432 22.971 47.4185C23.5974 47.4938 24.1799 47.7788 24.6237 48.2273C25.8047 49.3093 25.5407 51.5173 25.2142 53.6083C25.1432 54.0628 24.9707 53.5308 23.4492 54.5503C22.7544 55.1613 22.1367 55.8548 21.6097 56.6153C21.3687 56.9998 21.5232 57.2828 20.5327 56.9748ZM22.6792 60.3248C22.7217 60.9833 19.3907 60.2178 22.8707 55.7943C24.2047 54.0993 25.1472 54.3818 25.4422 54.3728C24.0102 55.4913 22.6097 59.2498 22.6792 60.3258V60.3248ZM21.0912 60.2328C21.2453 60.5169 21.4774 60.751 21.7602 60.9076C22.043 61.0641 22.3646 61.1365 22.6872 61.1163C23.2752 61.1233 23.1172 60.5918 23.2102 60.0663C23.4467 58.7298 23.8967 57.6993 25.0317 55.5938C25.3957 54.9188 26.2947 54.3353 26.9847 54.6363C28.6687 55.3708 28.9082 55.5413 29.3712 56.5578C29.7712 57.4413 29.5252 59.2703 29.3212 60.1798C29.0347 61.2256 28.6343 62.2368 28.1272 63.1953C28.0062 63.4478 27.3772 63.1218 26.3212 64.0058C25.7141 64.6477 25.1998 65.3714 24.7932 66.1558C22.9542 64.6173 20.5427 63.0853 21.0912 60.2338V60.2328ZM28.0322 63.8258C26.5112 65.5928 25.9772 67.6598 25.8822 69.9158C24.7082 69.5273 24.5172 67.9733 25.1207 66.7488C25.9842 64.9968 26.5867 63.8958 28.0322 63.8268V63.8258ZM24.6432 69.5923C24.8967 69.8128 25.1347 70.0553 25.4062 70.2488C25.4906 70.3332 25.599 70.3895 25.7167 70.41C25.8343 70.4305 25.9554 70.4143 26.0634 70.3634C26.1714 70.3125 26.2611 70.2296 26.3202 70.1258C26.3793 70.0221 26.405 69.9027 26.3937 69.7838C26.6242 66.3303 28.1292 64.2653 28.7177 63.8948C29.8677 63.1713 32.4472 65.6948 31.6352 69.2003C31.0997 71.5128 29.6102 72.5178 30.1852 74.1458C30.203 74.2193 30.2379 74.2875 30.287 74.345C30.336 74.4025 30.3979 74.4477 30.4677 74.4768C30.5802 74.5243 30.6347 74.7078 30.7357 74.8603C27.2527 75.8418 24.0707 71.5283 24.6432 69.5933V69.5923ZM58.3932 44.8728C58.5839 45.5739 58.5925 46.312 58.4182 47.0173C57.4682 45.2438 56.9222 43.3838 56.1552 41.6148C57.1438 42.5127 57.9097 43.6285 58.3922 44.8738L58.3932 44.8728ZM60.9997 54.7128C61.0037 54.7233 63.3297 60.7228 63.9042 63.0228C64.6042 65.8198 62.5542 67.5783 59.6542 68.9818C57.4942 70.0268 39.4822 77.3473 36.2117 78.0528C31.6837 79.0288 31.2507 73.6338 30.6887 73.9163C30.3537 73.2338 31.0352 72.1698 31.3742 71.4913C32.9157 74.9578 34.1742 77.9233 38.7192 76.3383C40.5222 75.7093 58.5232 68.2068 60.9027 66.6583C62.4062 65.6798 62.8697 65.0778 63.0452 64.4868C63.6157 62.5668 62.1337 59.9948 60.0132 54.0868C59.8307 53.5788 54.3872 40.3828 54.3602 40.2758C55.8667 41.2428 54.7997 39.4083 60.9997 54.7128ZM47.0997 31.9743C47.1612 32.3623 47.2102 32.7383 47.2497 33.0913C48.2697 42.5558 39.2772 49.4413 30.9137 47.1663C28.2012 46.4288 27.0437 45.4398 25.3862 44.2358C24.8977 43.8813 24.9327 44.0988 23.9327 44.9218C23.1772 45.5433 23.2377 45.0898 22.6472 39.7893C22.5837 39.2223 22.5267 38.6893 23.0522 38.9108C29.1747 41.5043 28.6522 40.9338 26.9712 42.3048C26.8457 42.4048 26.7832 42.5638 26.9412 42.6918C27.3472 43.0459 27.7738 43.3756 28.2187 43.6793C29.7187 44.6233 32.6322 45.6198 34.7982 45.3568C36.5736 45.1605 38.2891 44.5987 39.8367 43.7068C43.4497 41.8648 45.5807 37.5313 45.1452 33.7198C44.9867 32.3323 44.6487 30.9953 44.6927 30.4818C44.7072 30.3103 44.7927 30.2658 44.9227 30.2168C45.6412 29.9473 46.0352 29.7838 46.2647 29.7323C46.4995 30.4951 46.7783 31.2437 47.0997 31.9743ZM45.9087 26.7093C45.8201 27.5981 45.9021 28.4957 46.1502 29.3538C44.2427 30.0083 44.1572 29.9598 44.2562 30.6198C44.7767 34.1003 45.0697 34.9388 44.3672 37.3758C42.7042 43.1498 35.7852 45.8563 31.8777 44.7538C28.8302 43.8933 28.0217 43.0908 27.4392 42.5223C27.4352 42.5182 27.432 42.5133 27.43 42.508C27.428 42.5026 27.4272 42.4969 27.4276 42.4912C27.4279 42.4854 27.4295 42.4799 27.4322 42.4748C27.4349 42.4697 27.4387 42.4653 27.4432 42.4618C29.7497 40.7563 28.9062 40.9433 23.2802 38.4953C23.1666 38.4334 23.0391 38.4016 22.9097 38.4027C22.7804 38.4039 22.6534 38.4381 22.541 38.502C22.4285 38.566 22.3343 38.6576 22.2671 38.7681C22.1999 38.8787 22.1621 39.0045 22.1572 39.1338C22.2289 41.0637 22.4437 42.9857 22.7997 44.8838C22.8194 45.0282 22.8783 45.1644 22.9702 45.2775C23.062 45.3907 23.1831 45.4765 23.3203 45.5255C23.4576 45.5745 23.6056 45.5849 23.7483 45.5555C23.8911 45.5261 24.023 45.4581 24.1297 45.3588C24.4202 45.1483 24.7122 44.8688 25.0082 44.6238C25.0219 44.6128 25.039 44.6068 25.0567 44.6068C25.0743 44.6068 25.0914 44.6128 25.1052 44.6238C31.9587 49.9798 39.7887 48.5378 44.3812 43.4163C45.5428 42.1587 46.4328 40.6752 46.9957 39.0583C47.6799 37.1587 47.9074 35.1247 47.6597 33.1208C50.0487 37.5678 53.1452 38.2368 53.9682 40.5748C54.3182 41.5618 57.8832 50.0248 58.3602 51.2023C58.5937 51.7778 58.7277 52.3983 58.9967 52.9523C59.3779 53.7905 59.7165 54.6474 60.0112 55.5198C62.9692 63.6343 64.3892 64.5348 59.4612 66.8793C57.9967 67.5758 53.1277 69.9793 42.5727 74.2868C42.5342 74.3023 38.9197 75.7278 38.8032 75.7598C36.5092 76.3903 36.0257 76.4373 34.8032 75.8178C33.4752 75.1433 32.9267 73.7308 31.7532 71.0998C31.5412 70.6233 33.0327 68.5543 32.0702 65.9098C31.5257 64.4148 30.3997 63.0368 28.6987 63.2808C29.1201 62.3674 29.4847 61.4288 29.7902 60.4703C31.4072 54.5538 26.9747 54.2868 26.0562 53.9373C25.5932 53.7608 25.7697 53.9598 25.8302 53.1618C25.9707 51.3193 26.2012 50.1443 25.6622 48.8483C25.4676 48.297 25.1149 47.8153 24.6481 47.4632C24.1814 47.1112 23.6212 46.9044 23.0377 46.8688C21.8942 46.7073 22.8162 47.6808 21.3447 44.0518C19.5727 39.6818 17.5882 36.1983 11.9647 21.3383C10.7502 18.1288 9.09118 15.6413 13.5822 13.1173C18.6322 10.2803 32.6362 4.91431 35.9547 4.09031C36.4169 3.95603 36.9077 3.9549 37.3705 4.08704C37.8333 4.21918 38.2495 4.47923 38.5712 4.83731C39.4176 5.83558 40.1264 6.94276 40.6787 8.12931C41.2712 9.41031 42.1637 11.4838 42.9662 13.3668C45.7397 19.8738 45.7087 20.7083 47.3242 24.1293C46.5433 24.7794 46.0376 25.7013 45.9092 26.7093H45.9087ZM47.6532 23.7853C45.6497 19.4583 45.0757 16.9768 42.1997 10.5288C41.2297 8.35381 40.0702 5.55731 38.5357 4.25781C38.1505 3.92678 37.6833 3.70564 37.1831 3.61766C36.6829 3.52967 36.1682 3.57808 35.6932 3.75781C30.2832 5.36281 21.3667 9.02181 21.3562 9.02681C10.6877 13.4848 8.88168 14.7258 10.9997 20.1543C19.5752 42.1148 18.4862 38.0163 21.8387 46.8578C20.6482 47.4938 20.6217 47.6078 20.5122 47.2948C18.9367 42.7998 12.4027 28.9593 9.31668 19.4658C7.27168 13.1758 14.1057 11.1903 33.6537 3.75881C36.3737 2.72481 38.0902 2.42281 39.6677 4.14231C40.4617 5.00781 41.1727 6.38481 42.0597 8.43731C45.5842 16.5948 45.7977 17.6768 48.2157 23.4873L47.6532 23.7853ZM52.4752 29.6723C51.9072 30.4018 51.8092 30.4093 50.6082 28.6548C50.0624 27.8306 49.6616 26.9191 49.4232 25.9598C49.3717 25.7099 49.3771 25.4515 49.4391 25.204C49.5011 24.9564 49.618 24.726 49.7812 24.5298C50.0767 24.0843 50.1677 24.0798 50.4872 23.9853C51.5112 24.0978 51.1702 24.4588 53.6372 28.2278C54.0497 28.8558 53.4997 28.3563 52.4757 29.6723H52.4752Z" fill="#033651"/>
<path d="M58.0995 54.6248C58.2267 54.9222 58.2559 55.2523 58.183 55.5673C58.009 55.8791 57.7231 56.1131 57.383 56.2218C56.4095 56.6218 38.3665 64.5573 34.0425 66.0243C33.623 66.1668 33.037 66.3743 32.6475 65.6438C32.418 65.2133 32.0385 64.3938 31.2805 62.7903C30.947 62.0863 30.698 61.4593 30.8175 61.0188C30.9435 60.5558 31.2485 60.4333 31.931 60.0808C33.2665 59.3903 35.296 58.5018 39.1635 56.8673C49.0235 52.6993 53.158 50.9173 54.927 50.3298C56.2045 49.9058 56.3625 50.3403 56.6705 50.9753C57.2405 52.1531 57.7183 53.3732 58.0995 54.6248ZM56.4365 56.0628C57.532 55.5913 57.7645 55.5033 57.714 55.1743C57.3634 53.8685 56.8939 52.5976 56.3115 51.3773C56.018 50.7398 55.9355 50.4883 55.0505 50.7958C52.1455 51.8048 36.253 58.5668 34.6865 59.2868C31.547 60.7308 31.09 60.8153 31.296 61.5808C31.7891 62.8881 32.3708 64.1602 33.037 65.3883C33.256 65.8303 33.762 65.6658 34.233 65.4833C41.9875 62.4713 54.4315 56.9253 56.4355 56.0628H56.4365Z" fill="#033651"/>
<path d="M45.0266 27.4073C45.1266 28.0773 44.6926 28.5573 43.9731 28.3198C39.8141 26.9318 38.6191 26.7228 38.4951 26.0123C38.4451 25.7338 38.5876 25.4973 39.2831 24.7728C39.3036 24.7513 39.3676 24.6788 39.3641 24.6493C39.3618 24.6349 39.3564 24.6211 39.3484 24.6088C39.3404 24.5966 39.3299 24.5862 39.3176 24.5783C37.6448 23.513 35.732 22.8833 33.7536 22.7468C27.2866 22.4148 22.2136 28.1083 22.6996 34.1538C23.0131 38.0513 24.4496 36.9158 21.2331 38.0463C21.1676 38.084 21.0943 38.1057 21.0189 38.1098C20.9436 38.1139 20.8683 38.1003 20.7992 38.07C20.73 38.0397 20.669 37.9935 20.6209 37.9353C20.5729 37.8771 20.5392 37.8084 20.5226 37.7348C16.4201 25.8633 28.7996 16.0533 39.2086 20.8803C41.8006 22.0803 41.4586 22.8773 42.1936 22.2898C44.1331 20.7388 44.1316 21.4638 45.0266 27.4073ZM44.1191 27.9538C44.5771 28.1138 44.6246 27.5858 44.5491 27.1153C43.7491 22.1333 43.6991 21.6653 42.9901 22.2123C42.8261 22.3388 42.6086 22.4558 42.3591 22.6558C41.4791 23.3613 41.9366 22.8003 39.2326 21.3638C37.7118 20.6105 36.0574 20.1641 34.3641 20.0502C32.6708 19.9363 30.9716 20.157 29.3636 20.6998C26.1687 21.7605 23.4736 23.9554 21.7881 26.8693C20.7175 28.7376 20.1452 30.8497 20.1261 33.0028C20.0987 34.5009 20.3531 35.9907 20.8761 37.3948C21.0016 37.7523 21.1096 37.5838 22.4471 37.1713C22.6471 37.1093 22.8471 37.0968 22.8146 36.9553C22.5925 36.1947 22.4324 35.4173 22.3361 34.6308C21.6566 28.7308 26.0686 23.2418 31.6631 22.4728C35.2776 21.9753 38.5576 23.4198 39.7706 24.4273C40.0961 24.6978 39.9206 24.8668 39.1591 25.5893C38.6321 26.0883 38.8436 26.1078 44.1191 27.9538Z" fill="#033651"/>
<path d="M42.0303 31.5704C42.2428 32.1204 42.0038 32.3314 40.4198 33.0674C39.9068 33.3059 40.4818 33.8449 40.0538 35.0944C39.9428 35.4194 40.0483 35.4124 41.3353 36.0634C41.8728 36.3354 41.7758 36.4474 40.7508 38.4504C40.5153 38.9099 40.2288 38.8819 38.7808 38.0109C38.7009 37.9565 38.6034 37.9345 38.5079 37.9492C38.4124 37.964 38.326 38.0144 38.2663 38.0904C37.0558 39.1214 37.1898 38.6349 37.9578 40.4999C38.1003 40.8454 38.0578 41.0149 37.7578 41.2234C37.1755 41.6209 36.5208 41.9002 35.8308 42.0454C35.2808 42.1629 35.1903 41.4699 34.5898 40.1924C34.4898 39.9824 34.3398 39.9539 32.7958 39.8194C32.6163 39.8039 32.4708 40.0639 32.0998 41.0349C31.7288 42.0059 31.0188 41.4489 29.4438 40.6194C29.0818 40.4289 29.2233 40.1504 29.7978 38.9274C30.0243 38.4449 30.0233 38.6274 28.6658 37.4214C27.1768 38.1174 27.0303 38.3039 26.6323 37.7049C24.4218 34.3739 27.2938 35.3809 27.4158 34.4079C27.6518 32.5294 27.6953 32.3644 27.2563 32.2509C25.1993 31.7194 26.4023 30.5324 26.7388 29.5704C26.7648 29.4829 26.8103 29.4025 26.8717 29.335C26.9331 29.2676 27.009 29.2149 27.0936 29.1808C27.1782 29.1467 27.2694 29.1322 27.3604 29.1383C27.4515 29.1443 27.54 29.1709 27.6193 29.2159C29.0308 29.8159 28.1963 30.0374 30.3328 28.4919C29.6473 26.7774 29.2243 26.6864 31.7008 25.9239C32.3473 25.7239 32.4878 25.9184 33.0093 27.4704C33.0638 27.6329 33.0048 27.6704 34.5093 27.6249C34.6908 27.6194 34.7513 27.4249 35.0183 26.5519C35.3513 25.4629 35.8988 25.8349 37.7803 26.6239C38.3303 26.8539 38.2078 27.3099 37.7188 28.5054C37.5293 28.9684 37.8233 28.8144 38.8578 29.9609C39.0578 30.1819 39.0783 30.1484 40.3023 29.5664C41.0558 29.2064 41.1798 29.3654 42.0303 31.5704ZM41.4078 32.0624C41.7878 31.8839 41.5798 31.7324 40.8993 30.0764C40.8063 29.8509 40.6768 29.8404 40.4758 29.9394C38.4233 30.9499 39.1833 30.6779 37.4993 29.2694C36.9463 28.8064 37.1563 28.8194 37.6373 27.4354C37.7993 26.9694 37.5098 27.0354 35.8373 26.3669C35.4873 26.2259 35.5023 26.3959 35.0123 27.7694C34.8588 28.2004 34.6733 28.0494 33.1183 28.0589C32.7358 28.0589 32.6838 27.9454 32.2153 26.5734C32.0653 26.1299 31.9323 26.2899 30.3388 26.9189C30.0773 27.0219 30.2388 27.1334 30.6638 28.2434C31.0033 29.1364 30.0293 28.7934 29.1678 30.0879C28.7903 30.6549 27.3838 29.2104 27.1583 29.6714C25.9583 32.1269 26.5523 31.1104 27.8083 32.0499C28.2083 32.3499 27.9528 32.7529 27.8518 34.5429C27.8298 34.9264 27.7158 34.9769 26.4958 35.5069C25.9998 35.7224 26.3458 36.1034 26.9458 37.3834C27.0688 37.6459 27.2098 37.6589 28.4523 37.0334C29.2233 36.6454 29.1743 37.4739 30.1173 38.0959C30.6788 38.4669 30.4643 38.5264 29.7388 39.9919C29.5668 40.3419 29.7273 40.3379 31.2338 41.0849C31.5543 41.2439 31.5723 41.0414 32.2103 39.6879C32.5388 38.9909 32.8068 39.6189 34.5018 39.5654C34.7978 39.5559 34.9288 39.7914 35.5143 41.2479C35.7608 41.8604 36.0053 41.5979 37.4318 40.9264C37.8318 40.7399 37.4978 40.5934 36.9063 38.9139C36.9703 38.4639 37.0843 38.6814 38.0673 37.7044C38.4673 37.3074 38.5283 37.3894 40.0703 38.2334C40.4623 38.4474 40.3598 38.1994 41.1438 36.7239C41.2858 36.4559 41.2073 36.4619 40.0938 35.9269C39.0803 35.4394 39.9938 34.9014 39.7328 33.2164C39.6823 32.8869 39.8573 32.7904 41.4078 32.0624Z" fill="#033651"/>
<path d="M37.4095 6.69175C37.6465 7.29175 37.028 7.43375 35.9595 7.89175C35.1571 8.27053 34.3324 8.6003 33.49 8.87925C32.737 9.06075 32.8925 9.01025 32.0995 7.31975C31.953 7.00725 31.88 6.76375 32.077 6.55875C32.3975 6.22475 33.527 5.80225 35.6995 4.98625C35.9291 4.85728 36.1962 4.81187 36.4555 4.85775C36.7025 4.97025 36.945 5.51075 37.4095 6.69175ZM36.894 7.09175C37.191 6.90525 37.118 6.79975 37.026 6.58875C36.4815 5.33375 36.4095 5.07675 36.1035 5.19775C34.8816 5.6225 33.6858 6.1192 32.5225 6.68525C32.3855 6.77475 32.3225 6.82375 32.4085 7.07725C32.5607 7.53282 32.75 7.97513 32.9745 8.39975C33.0525 8.59175 33.177 8.63025 33.4835 8.51625C34.204 8.24975 36.2255 7.46025 36.894 7.09175Z" fill="#033651"/>
<path d="M34.78 37.5541C28.386 38.7401 28.489 30.0301 33.621 29.9466C38.864 29.8606 38.595 36.8466 34.78 37.5541ZM37.2265 33.9686C37.5975 29.3331 29.808 28.8136 30.3045 34.5121C30.563 37.4781 35.0235 38.0926 36.478 36.0071C36.904 35.4061 37.1623 34.7025 37.2265 33.9686Z" fill="#033651"/>
<path d="M26.2255 9.29454C25.978 9.59854 26.5825 9.25254 23.6945 10.5375C22.8315 10.922 21.501 11.834 21.6445 10.754C21.689 10.419 21.9085 10.3855 23.989 9.43954C24.5127 9.20154 25.0412 8.97304 25.5745 8.75404C25.937 8.60554 26.2215 8.81054 26.2255 9.29454Z" fill="#033651"/>
<path d="M44.119 27.9538C44.577 28.1138 44.6245 27.5858 44.549 27.1153C43.749 22.1333 43.699 21.6653 42.99 22.2123C42.826 22.3388 42.6085 22.4558 42.359 22.6558C41.479 23.3613 41.9365 22.8003 39.2325 21.3638C37.7117 20.6104 36.0574 20.1641 34.3641 20.0501C32.6707 19.9362 30.9715 20.157 29.3635 20.6998C26.1687 21.7604 23.4735 23.9554 21.788 26.8693C20.7174 28.7375 20.1451 30.8496 20.126 33.0028C20.0986 34.5008 20.3531 35.9907 20.876 37.3948C21.0015 37.7523 21.1095 37.5838 22.447 37.1713C22.647 37.1093 22.847 37.0968 22.8145 36.9553C22.5924 36.1947 22.4324 35.4173 22.336 34.6308C21.6565 28.7308 26.0685 23.2418 31.663 22.4728C35.2775 21.9753 38.5575 23.4198 39.7705 24.4273C40.096 24.6978 39.9205 24.8668 39.159 25.5893C38.632 26.0883 38.8435 26.1078 44.119 27.9538Z" fill="white"/>
<path d="M47.1 31.9744C47.1615 32.3624 47.2105 32.7384 47.25 33.0914C48.27 42.5559 39.2775 49.4414 30.914 47.1664C28.2015 46.4289 27.044 45.4399 25.3865 44.2359C24.898 43.8814 24.933 44.0989 23.933 44.9219C23.1775 45.5434 23.238 45.0899 22.6475 39.7894C22.584 39.2224 22.527 38.6894 23.0525 38.9109C29.175 41.5044 28.6525 40.9339 26.9715 42.3049C26.846 42.4049 26.7835 42.5639 26.9415 42.6919C27.3475 43.046 27.7741 43.3757 28.219 43.6794C29.719 44.6234 32.6325 45.6199 34.7985 45.3569C36.5739 45.1606 38.2894 44.5988 39.837 43.7069C43.45 41.8649 45.581 37.5314 45.1455 33.7199C44.987 32.3324 44.649 30.9954 44.693 30.4819C44.7075 30.3104 44.793 30.2659 44.923 30.2169C45.6415 29.9474 46.0355 29.7839 46.265 29.7324C46.4998 30.4953 46.7786 31.2438 47.1 31.9744Z" fill="white"/>
<path d="M56.4357 56.0637C57.5312 55.5922 57.7637 55.5042 57.7132 55.1752C57.3626 53.8694 56.8931 52.5984 56.3107 51.3782C56.0172 50.7407 55.9347 50.4892 55.0497 50.7967C52.1447 51.8057 36.2522 58.5677 34.6857 59.2877C31.5462 60.7317 31.0892 60.8162 31.2952 61.5817C31.7883 62.889 32.37 64.1611 33.0362 65.3892C33.2552 65.8312 33.7612 65.6667 34.2322 65.4842C41.9877 62.4722 54.4317 56.9262 56.4357 56.0637Z" fill="white"/>
<path d="M50.5885 54.6169C51.413 56.3669 51.6225 56.7629 51.164 57.0769C50.8315 57.3044 38.4385 62.7379 34.8855 64.1824C33.925 64.5734 33.8265 64.3089 33.63 63.9794C33.3672 63.4726 33.1379 62.9492 32.9435 62.4124C32.662 61.7124 32.755 61.5204 33.0395 61.3884C37.2895 59.4214 38.4895 58.9884 44.2305 56.5384C50.3735 53.9164 50.1955 53.7819 50.5885 54.6169Z" fill="#033651"/>
<path d="M36.8939 7.09181C37.1909 6.90531 37.1179 6.79981 37.0259 6.58881C36.4814 5.33381 36.4094 5.07681 36.1034 5.19781C34.8814 5.62256 33.6857 6.11926 32.5224 6.68531C32.3854 6.77481 32.3224 6.82381 32.4084 7.07731C32.5606 7.53287 32.7499 7.97519 32.9744 8.39981C33.0524 8.5918 33.1769 8.63031 33.4834 8.51631C34.2039 8.24981 36.2254 7.46031 36.8939 7.09181Z" fill="white"/>
<path d="M35.7283 6.78311C35.8408 7.04211 35.9338 7.16261 35.5398 7.30811C35.3438 7.38011 34.8158 7.63261 33.7703 8.02861C33.3243 8.19761 33.2923 8.12861 33.2108 8.02361C33.0569 7.78659 32.9398 7.52767 32.8633 7.25561C32.8403 7.17611 32.7563 6.95561 33.1498 6.78511C34.2678 6.29911 35.0998 5.95111 35.2573 6.01611C35.4698 6.10461 35.5648 6.40761 35.7283 6.78311Z" fill="#033651"/>
</svg>
