<svg width="100" height="100" viewBox="0 0 100 100" fill="none" xmlns="http://www.w3.org/2000/svg">
<path d="M94.731 14.5344C94.6092 14.221 94.4048 13.9465 94.1394 13.7401C93.8741 13.5336 93.5577 13.4029 93.224 13.3619L61.374 10.3694C60.774 10.3149 59.3645 10.1859 58.9655 11.6554L55.1265 38.0759C55.1432 38.2359 55.2048 38.3879 55.304 38.5144L42.552 43.6274L37.7775 24.7774C37.6908 24.4643 37.5429 24.1715 37.3425 23.9159C37.142 23.6602 36.8929 23.4468 36.6095 23.2879C36.469 23.0944 34.7475 22.3879 32.8905 22.7444L7.14654 30.7034C6.47906 30.9318 5.92237 31.4037 5.58782 32.0248C5.25326 32.6459 5.16548 33.3704 5.34204 34.0534L21.092 95.5839C21.3975 96.8679 24.174 98.2474 26.0515 97.5669L51.5115 88.1394C52.0857 87.9208 52.5611 87.5014 52.8494 86.9588C53.1376 86.4163 53.2192 85.7876 53.079 85.1894L44.3995 50.9139C70.176 57.7094 68.9295 57.3944 69.0095 57.3854C69.0895 57.3764 68.101 57.8454 90.434 46.8039C90.4745 46.7839 90.5088 46.7533 90.5333 46.7153C90.5578 46.6774 90.5715 46.6335 90.573 46.5884L90.623 45.1234C91.3305 45.2444 91.646 44.7269 91.6435 44.0094C94.979 12.4654 94.765 14.6189 94.731 14.5344ZM42.711 44.0999L55.6495 38.9159C55.8665 39.0976 56.1286 39.2172 56.408 39.2619L89.5215 44.9344L68.8415 55.0094L43.883 48.8824C42.58 43.7389 42.6585 44.1239 42.711 44.0999ZM51.3375 87.6679C24.6085 97.5379 25.7875 97.0954 25.7375 97.1364C25.4541 97.2038 25.1603 97.2167 24.872 97.1744C24.5045 97.1089 24.1634 96.9392 23.8895 96.6855C23.6155 96.4319 23.4201 96.1049 23.3265 95.7434L7.57554 34.2074C7.4343 33.6494 7.51396 33.0584 7.79791 32.5576C8.08185 32.0569 8.54815 31.6852 9.09954 31.5199L34.8995 23.5604C35.1452 23.4889 35.4027 23.467 35.657 23.4962C35.9112 23.5254 36.1571 23.605 36.3802 23.7303C36.6033 23.8556 36.7992 24.0242 36.9563 24.2261C37.1135 24.4281 37.2288 24.6594 37.2955 24.9064L52.5955 85.3144C52.7065 85.7928 52.6402 86.2952 52.4088 86.7284C52.1775 87.1615 51.7968 87.4961 51.3375 87.6699V87.6679ZM90.9915 44.5819C90.9596 44.6084 90.922 44.6273 90.8816 44.637C90.8412 44.6467 90.7991 44.647 90.7585 44.6379C90.4975 44.5934 90.5705 44.6134 90.52 44.5804C90.4245 44.5189 92.64 44.9119 56.501 38.7684C56.3154 38.7221 56.1419 38.6365 55.9923 38.5174C55.8426 38.3983 55.7203 38.2484 55.6335 38.0779L59.4565 11.7554C59.7175 10.7999 60.525 10.7909 61.337 10.8659L93.1755 13.8574C93.4082 13.8873 93.6291 13.9773 93.8163 14.1186C94.0036 14.2598 94.1508 14.4474 94.2435 14.6629C90.8995 46.3164 91.144 44.4499 90.9915 44.5839V44.5819Z" fill="#033651"/>
<path d="M61.5543 13.0798C61.4907 13.0736 61.4271 13.0919 61.3766 13.131C61.3262 13.1702 61.2926 13.2272 61.2828 13.2903L57.6133 37.0573C57.6032 37.1226 57.6194 37.1892 57.6582 37.2426C57.6971 37.296 57.7556 37.3319 57.8208 37.3423C89.9493 42.4353 88.7493 42.2568 88.7993 42.2568C88.8607 42.2573 88.9201 42.2351 88.9662 42.1945C89.0124 42.1539 89.0419 42.0978 89.0493 42.0368C92.4088 14.5098 92.2038 16.2918 92.0993 16.1638C91.9948 16.0358 94.1793 16.0358 61.5543 13.0798ZM88.5798 41.7193L58.1453 36.8878L61.7408 13.5998L91.6228 16.5438L88.5798 41.7193Z" fill="#033651"/>
<path d="M45.895 44.1709C73.282 50.1999 72.095 49.9349 72.145 49.9349C72.2215 49.9349 71.5025 50.2059 82.627 45.6824C82.6773 45.6621 82.7197 45.626 82.7476 45.5794C82.7756 45.5329 82.7877 45.4786 82.782 45.4246C82.7764 45.3706 82.7533 45.3199 82.7163 45.2802C82.6793 45.2405 82.6304 45.2139 82.577 45.2044C52.427 39.9939 54.43 40.3234 54.327 40.3629L45.857 43.6939C45.807 43.7135 45.7647 43.7486 45.7363 43.7941C45.7078 43.8396 45.6948 43.893 45.699 43.9465C45.7033 44 45.7246 44.0507 45.7599 44.0911C45.7952 44.1315 45.8426 44.1595 45.895 44.1709ZM74.511 48.3679L49.2635 42.8914L50.4635 42.4194L76.484 47.6459C75.8444 47.9335 75.185 48.1747 74.511 48.3679ZM52.3525 41.6764C52.4025 41.6954 51.1245 41.4519 78.963 46.6354C77.122 47.3854 77.342 47.3084 77.2735 47.2944L51.3235 42.0819L52.3525 41.6764ZM54.443 40.8539L81.628 45.5489L79.6495 46.3554C79.6285 46.3134 74.513 45.2979 53.2235 41.3339L54.443 40.8539ZM48.425 43.2209L73.8225 48.7304L72.1225 49.4239L46.804 43.8589L48.425 43.2209Z" fill="#033651"/>
<path d="M60.904 48.0854C53.179 46.4609 53.638 46.5354 53.5415 46.5704L48.2345 48.4899C48.1845 48.5079 48.1415 48.5414 48.1119 48.5856C48.0822 48.6297 48.0674 48.6821 48.0695 48.7353C48.0717 48.7884 48.0908 48.8395 48.124 48.881C48.1571 48.9226 48.2027 48.9525 48.254 48.9664C56.144 51.1074 55.5815 50.9844 55.704 50.9289L60.954 48.5579C61.0021 48.5363 61.0421 48.5001 61.0684 48.4544C61.0946 48.4087 61.1058 48.3559 61.1002 48.3035C61.0947 48.2511 61.0727 48.2018 61.0375 48.1626C61.0023 48.1234 60.9556 48.0964 60.904 48.0854ZM55.581 50.4354L49.1495 48.6909L53.645 47.0649L60.0535 48.4149L55.581 50.4354Z" fill="#033651"/>
<path d="M65.0019 24.1339C69.5229 24.6704 80.3284 25.9339 84.3779 26.2804C84.8673 26.3102 85.3492 26.1494 85.7226 25.8317C86.0961 25.514 86.332 25.0641 86.3811 24.5763C86.4301 24.0885 86.2885 23.6006 85.9858 23.215C85.6831 22.8293 85.2429 22.5757 84.7574 22.5074C83.1379 22.3169 67.9639 20.7819 65.4014 20.4764C63.0829 20.1999 62.4774 23.8344 65.0019 24.1339ZM85.8934 24.4499C85.8891 24.6362 85.8467 24.8196 85.769 24.9889C85.6912 25.1582 85.5797 25.3098 85.4413 25.4345C85.3029 25.5591 85.1404 25.6542 84.9639 25.7139C84.7874 25.7735 84.6006 25.7965 84.4149 25.7814L78.9234 25.1734C79.0789 23.8234 79.2644 23.2159 79.2794 22.4514L84.6994 23.0044C85.0449 23.0485 85.3606 23.2224 85.5824 23.4909C85.8042 23.7595 85.9154 24.1024 85.8934 24.4499Z" fill="#033651"/>
<path d="M75.5673 34.6254C74.0088 35.6009 71.6108 34.5714 71.2493 32.1294C71.2926 32.1492 71.3408 32.1562 71.388 32.1496C71.4352 32.1429 71.4795 32.1229 71.5157 32.0919C71.5519 32.0609 71.5785 32.0202 71.5923 31.9746C71.6062 31.9289 71.6067 31.8803 71.5938 31.8344C71.3243 31.0034 71.2878 30.8199 71.3173 30.6449C71.3553 30.4189 70.9278 30.0399 70.7408 30.3664C70.5022 30.8141 70.3228 31.291 70.2073 31.7849C70.1929 31.8486 70.2041 31.9154 70.2384 31.971C70.2726 32.0266 70.3273 32.0666 70.3907 32.0824C70.454 32.0982 70.521 32.0886 70.5774 32.0556C70.6338 32.0226 70.675 31.9689 70.6923 31.9059L70.7153 31.8159C70.8873 34.8064 73.8373 36.2974 75.8328 35.0494C75.889 35.0142 75.9289 34.9581 75.9438 34.8935C75.9587 34.8288 75.9472 34.7609 75.912 34.7047C75.8768 34.6485 75.8207 34.6085 75.7561 34.5937C75.6914 34.5788 75.6235 34.5902 75.5673 34.6254Z" fill="#033651"/>
<path d="M77.569 32.6165C78.2005 30.1015 76.487 27.644 74.176 27.644C73.679 27.6516 73.19 27.7708 72.7453 27.9929C72.3006 28.215 71.9116 28.5342 71.607 28.927C71.5864 28.953 71.5711 28.9828 71.5621 29.0148C71.5531 29.0467 71.5506 29.0801 71.5546 29.113C71.5586 29.146 71.5692 29.1778 71.5857 29.2066C71.6021 29.2354 71.6242 29.2606 71.6505 29.2808C71.6768 29.301 71.7068 29.3158 71.7389 29.3243C71.771 29.3327 71.8044 29.3347 71.8373 29.3302C71.8702 29.3256 71.9018 29.3145 71.9303 29.2976C71.9588 29.2806 71.9837 29.2582 72.0035 29.2315C72.2609 28.899 72.5898 28.6285 72.9658 28.4403C73.3419 28.252 73.7555 28.1508 74.176 28.144C76.111 28.144 77.544 30.176 77.1285 32.294C77.1151 32.239 77.0835 32.1901 77.0387 32.1554C76.9939 32.1207 76.9386 32.1022 76.8819 32.103C76.8253 32.1038 76.7706 32.1239 76.7268 32.1598C76.683 32.1958 76.6528 32.2456 76.641 32.301L76.359 33.656C76.3516 33.6923 76.3523 33.7298 76.3612 33.7658C76.37 33.8017 76.3867 33.8353 76.4101 33.864C76.4335 33.8927 76.463 33.9158 76.4965 33.9318C76.5299 33.9477 76.5665 33.956 76.6035 33.956C77.1504 33.7834 77.621 33.4274 77.936 32.948C77.9692 32.8981 77.9833 32.838 77.9759 32.7785C77.9684 32.7191 77.9399 32.6643 77.8954 32.6241C77.8509 32.5839 77.7935 32.5611 77.7336 32.5597C77.6737 32.5583 77.6153 32.5785 77.569 32.6165Z" fill="#033651"/>
<path d="M35.4568 26.7154C35.3113 26.6334 37.0023 26.1454 10.5888 34.5994C10.5281 34.6188 10.4771 34.6607 10.4463 34.7165C10.4154 34.7722 10.407 34.8377 10.4228 34.8994L24.1408 88.9819C24.1743 89.1124 24.2838 89.2049 24.4908 89.1344C25.7908 88.6929 38.5078 84.2619 48.9093 80.6344C48.9684 80.6138 49.0176 80.5718 49.0472 80.5168C49.0768 80.4617 49.0847 80.3975 49.0693 80.3369C34.5743 22.8999 35.6043 26.7999 35.4568 26.7154ZM24.5568 88.5944L10.9653 35.0039L35.1583 27.2539L48.5298 80.2349L24.5568 88.5944Z" fill="#033651"/>
<path d="M22.7464 29.4424C22.8517 29.4424 22.9546 29.4112 23.0422 29.3527C23.1298 29.2942 23.198 29.211 23.2383 29.1137C23.2786 29.0164 23.2892 28.9094 23.2686 28.8061C23.2481 28.7028 23.1974 28.6079 23.1229 28.5334C23.0484 28.4589 22.9535 28.4082 22.8503 28.3877C22.747 28.3671 22.6399 28.3777 22.5426 28.418C22.4453 28.4583 22.3621 28.5265 22.3036 28.6141C22.2451 28.7017 22.2139 28.8046 22.2139 28.9099C22.2141 29.0511 22.2703 29.1864 22.3701 29.2862C22.4699 29.386 22.6052 29.4422 22.7464 29.4424Z" fill="#033651"/>
<path d="M39.8606 86.125C38.1786 84.6145 35.7301 86.0955 36.0046 88.4655C36.0495 89.0932 36.3215 89.6829 36.7696 90.1246C37.2178 90.5663 37.8114 90.8297 38.4396 90.8655C40.7126 90.865 41.6096 87.6995 39.8606 86.125ZM38.6341 90.3535C37.5466 90.4795 36.6341 89.5445 36.5011 88.408C36.2806 86.4995 38.1846 85.2905 39.5266 86.4995C40.8686 87.7085 40.3301 90.1575 38.6341 90.3535Z" fill="#033651"/>
<path d="M18.8794 54.022C17.0329 54.672 17.3639 57.535 19.4529 57.535C19.8854 57.535 18.6294 58.0885 38.5239 51.1615C40.7479 50.3875 39.6114 46.866 37.2874 47.641C37.2874 47.641 22.8179 52.631 18.8794 54.022ZM38.5129 48.1995C38.7407 48.3267 38.9279 48.5156 39.053 48.7446C39.1781 48.9735 39.236 49.2332 39.22 49.4936C39.204 49.754 39.1148 50.0046 38.9626 50.2165C38.8105 50.4284 38.6015 50.5931 38.3599 50.6915L33.0284 52.4995C32.8534 51.8935 32.4094 50.5205 32.2159 49.929L37.3159 48.1605C37.5055 48.0765 37.7116 48.0364 37.9188 48.0432C38.1261 48.0499 38.3291 48.1034 38.5129 48.1995Z" fill="#033651"/>
<path d="M32.174 59.193C32.8056 59.1823 33.4313 59.3155 34.0037 59.5827C34.5761 59.8499 35.0801 60.244 35.4775 60.735C35.4975 60.7617 35.5226 60.7841 35.5514 60.8009C35.5802 60.8178 35.6121 60.8287 35.6451 60.833C35.6782 60.8373 35.7118 60.835 35.744 60.8261C35.7761 60.8173 35.8062 60.8021 35.8324 60.7814C35.8585 60.7608 35.8803 60.7351 35.8964 60.7059C35.9126 60.6767 35.9227 60.6445 35.9262 60.6114C35.9297 60.5782 35.9265 60.5447 35.9169 60.5127C35.9072 60.4808 35.8913 60.4512 35.87 60.4255C35.4254 59.8745 34.8612 59.4321 34.22 59.1319C33.5789 58.8317 32.8778 58.6816 32.17 58.693C28.676 58.769 26.3655 62.696 27.6405 66.2885C27.5148 66.1683 27.3978 66.0393 27.2905 65.9025C27.2706 65.8758 27.2456 65.8533 27.2169 65.8364C27.1883 65.8194 27.1565 65.8084 27.1235 65.8039C27.0905 65.7994 27.057 65.8016 27.0248 65.8103C26.9927 65.8189 26.9626 65.8339 26.9363 65.8543C26.91 65.8748 26.8881 65.9003 26.8718 65.9293C26.8555 65.9584 26.8452 65.9904 26.8414 66.0234C26.8377 66.0565 26.8406 66.09 26.8499 66.122C26.8593 66.1539 26.8749 66.1837 26.896 66.2095C27.2243 66.6271 27.6271 66.9804 28.084 67.2515C28.134 67.3385 28.184 67.435 28.334 67.435C28.3575 67.4351 28.3809 67.4317 28.4035 67.425C28.479 67.462 28.5535 67.4965 28.6325 67.5285C28.6744 67.5459 28.7203 67.5516 28.7653 67.545C28.8102 67.5383 28.8525 67.5195 28.8875 67.4906C28.9226 67.4617 28.9491 67.4238 28.9643 67.381C28.9794 67.3381 28.9826 67.292 28.9735 67.2475L28.5785 65.328C28.5719 65.2958 28.5591 65.2652 28.5407 65.238C28.5223 65.2108 28.4987 65.1875 28.4714 65.1694C28.444 65.1513 28.4133 65.1387 28.381 65.1325C28.3488 65.1263 28.3156 65.1264 28.2835 65.133C28.2513 65.1395 28.2207 65.1524 28.1935 65.1708C28.1663 65.1891 28.143 65.2127 28.1249 65.2401C28.1068 65.2675 28.0942 65.2982 28.088 65.3304C28.0817 65.3627 28.0819 65.3958 28.0885 65.428L28.348 66.6875C26.7555 63.4495 28.727 59.268 32.174 59.193Z" fill="#033651"/>
<path d="M37.1353 62.4372C37.1114 62.3933 37.0749 62.3575 37.0306 62.3346C36.9862 62.3116 36.936 62.3025 36.8864 62.3084C36.8367 62.3142 36.79 62.3348 36.7522 62.3675C36.7144 62.4002 36.6873 62.4434 36.6743 62.4917L36.6418 62.6121C36.5889 62.6365 36.5462 62.6786 36.521 62.731C36.4958 62.7835 36.4897 62.8432 36.5038 62.8997C36.5433 63.0562 36.5798 62.8387 36.1098 64.5802C36.0925 64.6442 36.1013 64.7125 36.1344 64.77C36.1674 64.8276 36.222 64.8696 36.286 64.8869C36.3501 64.9042 36.4184 64.8954 36.4759 64.8623C36.5335 64.8292 36.5755 64.7747 36.5928 64.7107L36.6653 64.4422C36.5778 68.1332 33.0523 70.4012 30.2653 68.7762C30.2082 68.7463 30.1417 68.7396 30.0798 68.7576C30.0178 68.7755 29.9652 68.8167 29.933 68.8726C29.9007 68.9284 29.8913 68.9945 29.9066 69.0571C29.9219 69.1198 29.9609 69.1741 30.0153 69.2087C33.3488 71.1517 37.6153 68.1477 37.1338 63.5967C37.2671 63.9206 37.3774 64.2536 37.4638 64.5932C37.4811 64.6561 37.5223 64.7098 37.5787 64.7428C37.635 64.7758 37.702 64.7854 37.7654 64.7696C37.8288 64.7538 37.8834 64.7138 37.9177 64.6582C37.952 64.6026 37.9631 64.5359 37.9488 64.4722C37.7636 63.7625 37.4903 63.0789 37.1353 62.4372Z" fill="#033651"/>
<path d="M82.1738 56.4459C82.1424 56.4557 82.1133 56.4717 82.0882 56.4927C82.063 56.5138 82.0422 56.5397 82.0271 56.5688C82.0119 56.5979 82.0026 56.6297 81.9997 56.6624C81.9968 56.6951 82.0004 56.7281 82.0102 56.7594C82.9359 59.7183 83.1822 62.8479 82.7309 65.9151C82.2797 68.9824 81.1425 71.9084 79.4039 74.4754C77.6653 77.0423 75.3702 79.1841 72.6893 80.7413C70.0084 82.2985 67.0109 83.231 63.9197 83.4694C63.9197 83.3694 63.8862 81.9649 63.8627 81.8629C63.8735 81.8167 63.8708 81.7683 63.8551 81.7235C63.8393 81.6788 63.8112 81.6394 63.7739 81.61C63.7366 81.5807 63.6917 81.5625 63.6445 81.5577C63.5973 81.5529 63.5497 81.5616 63.5072 81.5829C62.3779 82.1524 61.2778 82.7784 60.2112 83.4584C60.1762 83.4805 60.1473 83.5109 60.127 83.547C60.1066 83.5831 60.0956 83.6236 60.0948 83.665C60.094 83.7064 60.1035 83.7473 60.1224 83.7841C60.1413 83.8209 60.1691 83.8525 60.2032 83.8759C61.2826 84.6147 62.4313 85.2465 63.6332 85.7624C63.6725 85.7796 63.7155 85.7864 63.7581 85.7823C63.8007 85.7781 63.8415 85.763 63.8767 85.7385C63.9118 85.714 63.9401 85.6809 63.9587 85.6424C63.9774 85.6038 63.9858 85.5611 63.9832 85.5184C63.9587 85.0779 63.9452 84.5304 63.9332 83.9684C67.1021 83.7286 70.1759 82.7765 72.9256 81.1832C75.6752 79.5899 78.0297 77.3965 79.8136 74.7665C81.5974 72.1364 82.7645 69.1376 83.2279 65.9937C83.6912 62.8497 83.4389 59.6417 82.4897 56.6089C82.4799 56.5773 82.4638 56.548 82.4425 56.5227C82.4213 56.4974 82.3952 56.4766 82.3658 56.4614C82.3364 56.4463 82.3043 56.4371 82.2713 56.4344C82.2384 56.4317 82.2052 56.4356 82.1738 56.4459Z" fill="#033651"/>
<path d="M20.8735 18.0863C20.9052 18.095 20.9382 18.0973 20.9708 18.0932C21.0034 18.089 21.0348 18.0785 21.0633 18.0622C21.0918 18.0459 21.1169 18.0241 21.137 17.9982C21.1571 17.9722 21.1718 17.9425 21.1805 17.9108C22.0035 14.9107 23.4953 12.1358 25.5438 9.79441C27.5923 7.45302 30.1445 5.6059 33.0087 4.3916C35.873 3.1773 38.9751 2.62735 42.0822 2.783C45.1893 2.93866 48.2209 3.79587 50.9495 5.29035C50.6655 5.74035 50.3325 6.26485 50.0905 6.69035C50.0497 6.72054 50.019 6.76243 50.0026 6.81045C49.9862 6.85848 49.9848 6.91036 49.9986 6.9592C50.0124 7.00804 50.0407 7.05153 50.0798 7.08389C50.1189 7.11624 50.1669 7.13594 50.2175 7.14035C51.421 7.24985 52.5975 7.32035 54.012 7.36685C54.0544 7.3688 54.0967 7.35989 54.1348 7.34097C54.1728 7.32205 54.2054 7.29373 54.2295 7.25869C54.2536 7.22366 54.2683 7.18307 54.2723 7.14075C54.2764 7.09843 54.2695 7.05579 54.2525 7.01685C53.7365 5.81496 53.1047 4.6662 52.366 3.58685C52.3414 3.55089 52.3079 3.52196 52.2687 3.50294C52.2296 3.48391 52.1861 3.47544 52.1427 3.47837C52.0992 3.4813 52.0573 3.49553 52.0211 3.51964C51.9848 3.54375 51.9555 3.57692 51.936 3.61585C51.7535 3.98085 51.4935 4.41585 51.2155 4.86235C48.4203 3.32728 45.3137 2.44549 42.1289 2.28321C38.9442 2.12093 35.764 2.68238 32.8273 3.92539C29.8906 5.1684 27.2738 7.06066 25.1732 9.46004C23.0727 11.8594 21.5432 14.7036 20.6995 17.7788C20.6818 17.8427 20.6902 17.9109 20.7228 17.9686C20.7555 18.0263 20.8096 18.0686 20.8735 18.0863Z" fill="#033651"/>
</svg>
