<svg width="50" height="50" viewBox="0 0 50 50" fill="none" xmlns="http://www.w3.org/2000/svg">
<path d="M29.167 43.75H12.5003C11.9478 43.75 11.4179 43.5305 11.0272 43.1398C10.6365 42.7491 10.417 42.2192 10.417 41.6667V8.33333C10.417 7.7808 10.6365 7.25089 11.0272 6.86019C11.4179 6.46949 11.9478 6.25 12.5003 6.25H33.3337C33.8862 6.25 34.4161 6.46949 34.8068 6.86019C35.1975 7.25089 35.417 7.7808 35.417 8.33333V12.5" stroke="#006CA3" stroke-width="2" stroke-linecap="round" stroke-linejoin="round"/>
<path d="M39.5833 22.9165H34.375C33.5462 22.9165 32.7513 23.2457 32.1653 23.8318C31.5792 24.4178 31.25 25.2127 31.25 26.0415V26.0415C31.25 26.8703 31.5792 27.6652 32.1653 28.2512C32.7513 28.8373 33.5462 29.1665 34.375 29.1665H36.4583C37.2871 29.1665 38.082 29.4957 38.668 30.0818C39.2541 30.6678 39.5833 31.4627 39.5833 32.2915V32.2915C39.5833 33.1203 39.2541 33.9152 38.668 34.5012C38.082 35.0873 37.2871 35.4165 36.4583 35.4165H31.25" stroke="#006CA3" stroke-width="2" stroke-linecap="round" stroke-linejoin="round"/>
<path d="M35.4167 37.5V35.4167M27.0833 6.25H18.75L19.7917 10.4167H26.0417L27.0833 6.25ZM35.4167 22.9167V20.8333V22.9167Z" stroke="#006CA3" stroke-width="2" stroke-linecap="round" stroke-linejoin="round"/>
</svg>
