<svg width="100" height="100" viewBox="0 0 100 100" fill="none" xmlns="http://www.w3.org/2000/svg">
<path d="M96.6861 82.7505C95.8901 85.048 94.3861 91.0275 89.5861 91.423C87.7246 91.5765 81.9536 91.0185 73.0171 91.5145C65.7496 91.918 54.7091 91.393 48.2481 91.2415C41.7871 91.09 26.2431 91.5415 19.2281 91.3915C12.1911 91.2415 3.8591 93.478 2.8386 84.7105C1.9826 77.3605 2.9781 71.968 3.4091 68.6505C4.1231 63.1545 3.5591 60.4935 3.5816 59.342C3.7816 59.2635 45.1506 59.372 95.4391 59.372C95.1921 62.6044 95.4302 65.8556 96.1456 69.0175C96.9291 72.1005 97.6161 80.066 96.6861 82.7505Z" fill="#FAFAFA"/>
<path d="M96.9654 81.5088C96.9167 81.9311 96.8231 82.3469 96.6864 82.7493C95.8904 85.0468 94.3864 91.0358 89.5864 91.4218C87.4459 89.5903 84.4864 87.0953 83.7539 86.6718C82.5739 85.9858 78.7904 82.5848 74.8959 81.8173C71.0014 81.0498 68.7534 80.3088 67.8754 79.7878C66.9974 79.2668 65.5444 77.7588 64.9684 77.4018C64.3808 76.9432 63.8223 76.4486 63.2959 75.9208C62.6109 75.3453 61.2664 74.3308 61.2394 73.6708C61.2124 73.0108 62.3634 72.3538 63.9264 73.1773C65.4894 74.0008 68.5334 76.6043 68.7804 75.9463C69.0274 75.2883 68.7804 74.3013 68.2599 73.5328C67.7394 72.7643 64.4474 69.7763 63.3234 69.2828C62.1377 68.851 60.8518 68.7746 59.6234 69.0628C58.8564 69.3093 56.9079 70.2153 56.2504 69.0078C55.5929 67.8003 56.8809 67.6078 57.5109 67.2533C58.1409 66.8988 59.3764 65.9368 60.1169 65.8273C60.8574 65.7178 63.2169 65.4978 64.3129 65.9643C64.3129 65.9643 62.7494 63.7143 61.7894 63.5233C60.8294 63.3323 58.9919 64.7033 57.4839 63.2498C57.4839 63.2498 57.1279 62.6738 58.1699 62.1528C59.2119 61.6318 61.3509 60.3698 63.3529 61.0823C65.3549 61.7948 66.0124 62.7558 66.6164 63.1948C67.2403 63.0294 67.8965 63.0282 68.521 63.1914C69.1455 63.3547 69.7172 63.6767 70.1804 64.1263C70.1469 64.0623 69.0724 62.0373 68.3984 61.6863C67.7134 61.3298 65.9584 61.1093 65.6839 60.5613C65.4229 60.0403 65.0629 59.5433 66.9369 59.3718C67.0339 59.3628 67.1369 59.3358 67.2469 59.3278C67.8536 59.2804 68.4633 59.2893 69.0684 59.3543C69.7337 59.3958 70.3667 59.6563 70.8684 60.0953C71.6432 60.8898 72.3326 61.7632 72.9254 62.7013C74.0942 64.2732 75.4071 65.7327 76.8469 67.0608C78.1639 68.1848 80.3014 71.8068 80.9604 72.4108C81.6111 73.0054 82.3162 73.5375 83.0664 74.0003C83.7794 74.4393 86.3574 76.3588 87.3999 76.8503C88.1434 77.2048 93.7934 79.9608 96.9654 81.5088Z" fill="#FAFAFA"/>
<path d="M22.8752 82.2768L12.9752 91.5373C8.17972 91.6113 3.93172 90.9873 2.94922 85.4588C3.39222 85.0623 3.92672 84.7773 4.31272 84.4643C5.29972 83.6643 15.0362 76.1953 15.0362 76.1953C18.0497 77.0323 20.5952 79.2573 22.8752 82.2768Z" fill="#FAFAFA"/>
<path d="M19.0863 75.2256C19.2241 75.2661 19.3458 75.3488 19.4343 75.4621C19.5227 75.5754 19.5734 75.7135 19.5793 75.8571C19.5573 76.0073 19.4839 76.1452 19.3717 76.2474C19.2595 76.3496 19.1153 76.4097 18.9638 76.4176C18.8207 76.4066 18.6862 76.3454 18.584 76.2447C18.4817 76.144 18.4184 76.0104 18.4053 75.8676C18.447 75.7074 18.533 75.5622 18.6535 75.4487C18.7739 75.3351 18.9239 75.2578 19.0863 75.2256Z" fill="#AFE2FC"/>
<path d="M17.8116 76.9844C17.9249 76.9928 18.0317 77.0408 18.1132 77.1199C18.1947 77.1991 18.2459 77.3044 18.2576 77.4174C18.2353 77.5323 18.1777 77.6374 18.0928 77.7181C18.0079 77.7987 17.9 77.8509 17.7841 77.8674C17.6704 77.8619 17.5618 77.8187 17.4755 77.7445C17.3892 77.6703 17.3301 77.5695 17.3076 77.4579C17.3233 77.3326 17.3823 77.2167 17.4743 77.1303C17.5663 77.0439 17.6856 76.9922 17.8116 76.9844Z" fill="#44ACE0"/>
<path d="M92.1771 74.1643C92.2061 74.2826 92.2082 74.4059 92.1835 74.5251C92.1587 74.6443 92.1077 74.7566 92.034 74.8536C91.9604 74.9506 91.8661 75.0299 91.7579 75.0858C91.6497 75.1418 91.5304 75.1728 91.4086 75.1768C83.0766 75.1893 85.8901 75.5833 83.1696 73.5698C82.3991 72.9993 81.7762 73.1508 80.8912 71.7783C78.6256 68.2643 77.9081 67.5413 76.8997 66.5208C76.3056 65.9208 76.5696 66.5833 82.9091 66.0708C83.0523 66.0745 83.1938 66.0398 83.3189 65.9702C83.444 65.9006 83.5481 65.7988 83.6205 65.6752C83.6928 65.5516 83.7306 65.411 83.7301 65.2678C83.7295 65.1246 83.6905 64.9842 83.6171 64.8613C82.6936 63.5303 80.0832 59.7583 78.7141 58.9113C78.1532 58.5638 41.0917 58.7788 40.7757 58.5028C40.2716 58.1336 39.6609 57.9389 39.0361 57.9483C38.0986 57.8658 36.1272 58.7733 35.9762 58.6043C35.6132 58.1978 33.7826 58.1083 33.2442 58.2223C31.6487 58.5598 34.4067 59.0583 25.0502 58.5503C24.0716 58.5222 23.0922 58.5594 22.1187 58.6618C21.7632 58.6903 21.4002 58.6163 21.0412 58.6213C17.8182 58.6663 18.6912 58.1393 16.3912 61.1363C16.1467 61.4543 15.3187 62.4663 13.5937 65.0418C13.5152 65.1458 13.4651 65.2685 13.4485 65.3978C13.4319 65.5271 13.4492 65.6585 13.4988 65.779C13.5484 65.8995 13.6286 66.005 13.7314 66.0851C13.8342 66.1652 13.9562 66.2172 14.0852 66.2358C17.3542 66.3593 24.5277 66.2543 24.7852 66.2543C22.1762 70.2833 23.4192 68.8148 20.2117 71.6803C20.2002 71.6903 19.8117 72.1268 19.5457 71.9718C18.8232 71.5488 18.2027 71.8013 17.5957 72.2218C16.5988 72.9235 15.6877 73.7397 14.8812 74.6538C14.4362 75.1538 14.4462 74.8603 12.1557 74.8258C12.1457 74.8258 5.74215 75.0383 5.14115 74.8058C4.60515 74.5983 4.87365 74.1308 5.49115 73.2058C5.93415 72.5428 16.8412 57.9503 17.0507 57.6868C17.9747 56.5258 17.6507 57.0543 29.1952 56.9183C29.2052 56.9183 74.0836 56.9463 75.7766 56.9293C80.7656 56.8793 79.5167 55.8293 83.0077 60.4023C85.1547 63.2088 90.9831 70.8953 92.1771 74.1643Z" fill="white"/>
<path d="M92.3414 75.7129C92.2339 76.7049 92.1309 77.6579 92.0179 78.6949C85.7679 75.6519 86.3784 75.9744 86.4239 75.9124C91.3149 75.9124 91.4499 76.0004 92.3414 75.7129Z" fill="white"/>
<path d="M80.3893 61.5845C82.9553 65.695 84.6068 65.3575 80.7073 65.5175C78.5273 65.6065 78.4502 65.609 76.1042 65.6095C75.9767 65.6095 76.0657 65.664 74.1042 63.7435C74.1457 63.6715 74.1173 63.647 74.4103 63.622C76.3918 63.4505 76.3823 63.38 76.5663 63.65C77.3728 64.833 77.5013 65.2075 77.8363 64.988C78.2333 64.728 77.6943 64.2095 77.0943 63.347C79.0748 63.197 79.9023 63.5205 79.9943 63.0725C80.0788 62.6595 79.3443 62.704 78.9188 62.7095C78.3009 62.6434 77.6769 62.664 77.0648 62.7705C76.6198 62.9015 76.6423 62.734 75.6148 61.188C76.9223 61.188 78.0648 61.495 78.0773 60.988C78.0838 60.7545 77.9188 60.674 77.7103 60.6715C75.2633 60.6455 75.2523 60.6845 75.1223 60.5345C74.7333 60.0845 74.6003 59.663 74.2808 59.8565C73.9838 60.037 74.2728 60.3615 74.5308 60.768C72.0868 60.768 72.2078 60.782 72.1063 60.711C69.9628 59.211 70.2938 59.454 70.1562 59.2705C78.6562 59.2705 78.4563 59.127 79.1193 59.9985C79.5303 60.537 80.0328 61.014 80.3893 61.5845Z" fill="white"/>
<path d="M80.1497 48.5793C80.1622 49.4228 80.2652 52.8793 80.1032 53.8858C79.9032 55.1103 79.5667 56.2118 78.2397 56.2688C75.1867 56.3998 20.8462 56.4943 19.5007 56.4498C18.2257 56.4083 17.5652 56.1438 17.1187 55.6673C16.4767 54.9818 16.3837 53.7518 16.4142 51.2358C16.6107 35.1933 16.3142 15.9818 16.4592 12.6823C16.5292 11.0988 16.0447 9.66533 18.4022 9.02733C20.0402 8.58383 25.6102 8.84233 31.8582 8.85383C38.9082 8.86683 71.6132 8.81183 75.7652 8.88583C79.3927 8.95033 79.8182 9.10133 79.9042 10.6093C80.1552 14.9773 80.0837 44.1923 80.1497 48.5793ZM78.1357 52.9108C78.3137 50.9858 78.5747 29.5928 78.3382 14.0223C78.3129 13.5926 78.1244 13.1887 77.8113 12.8932C77.4983 12.5977 77.0842 12.4329 76.6537 12.4323C75.3997 12.3698 20.9497 12.3113 19.9497 12.3998C18.6362 12.4383 17.9162 13.0728 17.7997 14.6923C17.6402 16.9598 17.7532 22.1688 17.7132 35.0523C17.7132 35.0623 17.8552 52.1453 18.0427 52.8953C18.0987 53.1172 18.2263 53.3144 18.4057 53.4565C18.5851 53.5985 18.8064 53.6773 19.0352 53.6808C73.4997 54.1708 78.0102 54.2728 78.1362 52.9108H78.1357ZM48.1247 10.8743C48.2747 9.82433 46.7207 9.43583 46.5997 10.8313C46.6235 10.9521 46.6616 11.0696 46.7132 11.1813C47.0187 11.6708 47.9727 11.9203 48.1247 10.8743Z" fill="white"/>
<path d="M77.7159 14.2881C77.7479 14.8821 77.8584 34.8436 77.6364 49.0501C77.5669 53.5171 77.8569 52.8561 75.0994 52.8386C35.4109 52.5886 23.5704 53.0701 20.0654 52.9646C18.3504 52.9146 18.7184 52.5216 18.6029 51.2901C18.5439 48.1851 18.4679 18.7291 18.4629 15.4401C18.4599 13.3646 19.1489 13.0576 20.8419 13.0301C21.7644 13.0146 70.2684 12.9641 76.4144 13.0766C76.5827 13.0551 76.7537 13.0709 76.9153 13.1228C77.0768 13.1748 77.225 13.2616 77.3492 13.3773C77.4734 13.4929 77.5706 13.6344 77.634 13.7918C77.6974 13.9493 77.7253 14.1187 77.7159 14.2881ZM73.0499 36.8651C73.0944 34.9476 73.0569 31.3776 72.9819 30.6576C72.9069 29.9376 72.7964 29.8966 72.3524 29.7756C71.5259 29.5506 40.9374 29.7256 40.8874 29.7281C24.9344 29.8396 24.8139 29.2826 24.6824 30.6991C24.6324 31.2221 24.6244 34.2591 24.6324 35.3641C24.6504 37.7541 24.5069 37.9601 25.7824 38.1181C27.1004 38.2811 51.9889 38.2376 53.6949 38.2326C57.1679 38.2221 70.8489 38.3066 72.0744 38.1991C73.0739 38.1121 73.0329 37.6716 73.0499 36.8651ZM73.0499 48.2786C73.0944 46.3611 73.0569 42.7921 72.9819 42.0721C72.9069 41.3521 72.7964 41.3101 72.3524 41.1891C71.5304 40.9656 40.9374 41.1426 40.8874 41.1426C24.9474 41.2531 24.8144 40.6926 24.6824 42.1136C24.6324 42.6356 24.6244 45.6736 24.6324 46.7776C24.6504 49.1611 24.5014 49.3731 25.7824 49.5316C27.1324 49.6986 52.2634 49.6501 53.6949 49.6461C57.1679 49.6356 70.8489 49.7201 72.0744 49.6126C73.0739 49.5256 73.0329 49.0861 73.0499 48.2786ZM56.0899 18.5871C56.1709 18.3871 55.5899 18.0786 55.4829 18.2916C54.8944 19.4341 54.8329 19.6836 54.7639 19.4511C54.7444 19.3861 54.7174 19.3241 54.6954 19.2481C53.5454 15.3141 49.7489 14.0351 46.2424 15.1926C43.6524 16.0476 42.1059 18.2901 42.0144 21.0801C41.989 21.9456 42.1376 22.8073 42.4513 23.6142C42.765 24.4212 43.2375 25.157 43.8407 25.7781C44.4439 26.3992 45.1656 26.8929 45.9631 27.23C46.7606 27.5671 47.6176 27.7407 48.4834 27.7406C49.9387 27.7634 51.3583 27.2889 52.5074 26.3956C53.6566 25.5023 54.4665 24.2436 54.8034 22.8276C54.845 22.6538 54.8713 22.4766 54.8819 22.2981C54.8819 22.2636 54.9199 22.0371 54.6119 21.9781C54.5594 21.9676 54.3619 21.9526 54.3039 22.0681C54.2507 22.1934 54.211 22.324 54.1854 22.4576C53.6279 25.1901 51.3854 26.9491 48.5089 27.0576C46.9933 27.069 45.5349 26.4801 44.4522 25.4196C43.3694 24.359 42.7504 22.9131 42.7304 21.3976C42.6854 15.3401 48.9904 14.5066 51.7374 16.2576C52.9572 17.0473 53.8195 18.2829 54.1399 19.7001C54.1634 19.8156 54.1794 19.9261 54.0344 19.8411C53.8519 19.7346 53.1294 19.3666 52.7559 19.1966C52.6314 19.1396 52.5559 19.1396 52.4744 19.2391C52.3644 19.3706 52.2849 19.6446 52.4154 19.7126C53.4529 20.2506 54.4449 20.7786 54.5229 20.7901C54.6534 20.8631 54.8464 20.9646 54.9494 20.7696C55.1194 20.4501 55.8164 19.2676 56.0919 18.5871H56.0899ZM51.3834 24.4721C51.5994 24.4581 51.7399 24.3221 51.6784 23.9281C51.5544 23.1316 51.1559 19.7846 51.1354 19.6781C51.0494 19.2361 51.0354 19.3186 50.3629 19.2836C50.2749 19.2791 50.2804 19.2481 50.2684 19.0901C50.1829 17.9156 49.6799 17.0721 48.4929 17.0721C47.3059 17.0721 46.8034 17.9171 46.7179 19.0901C46.7064 19.2481 46.7109 19.2721 46.6234 19.2836C46.1449 19.3471 45.8999 19.1916 45.8504 19.6781C45.8409 19.7711 45.5349 22.3751 45.3689 23.5806C45.3024 24.0631 45.1539 24.4691 45.8239 24.4806C46.8799 24.5001 51.2834 24.4791 51.3854 24.4721H51.3834Z" fill="#AFE2FC"/>
<path d="M75.0044 61.4C76.0999 62.958 75.9569 62.7675 75.9864 62.907C73.6864 63.0805 73.6834 63.1625 73.4959 62.857C72.4459 61.153 72.6324 61.4905 72.5674 61.3145C75.0109 61.318 74.9299 61.2965 75.0044 61.4Z" fill="white"/>
<path d="M72.4551 31.0142C72.5506 32.9737 72.5876 35.1702 72.5361 36.3542C72.5161 36.8132 72.6101 37.5442 72.1335 37.6292C71.111 37.8122 26.363 37.6682 26.3115 37.6667C25.1295 37.6332 25.18 37.3577 25.158 36.4252C25.123 34.9727 25.137 31.7117 25.208 30.8297C25.252 30.3027 25.4855 30.3042 26.042 30.2712C27.359 30.1932 30.718 30.1547 37.322 30.1982C54.1105 30.3097 48.3776 30.1137 61.3321 30.1507C63.4821 30.1567 71.25 30.1702 71.6791 30.2007C72.465 30.2532 72.4256 30.4152 72.4551 31.0142ZM51.3 34.5447C51.3291 34.3287 51.325 34.1095 51.288 33.8947C51.2675 33.8077 51.2645 33.7657 51.1905 33.7557C50.8045 33.7057 50.046 33.7962 50.1475 33.6737C50.2075 33.6017 50.492 33.4677 50.861 33.1792C51.1445 32.9577 51.194 32.8957 51.0355 32.6977C50.5855 32.1322 50.5995 32.1512 50.415 32.2567C50.129 32.4541 49.8555 32.669 49.596 32.9002C49.5882 32.9056 49.5787 32.9077 49.5693 32.9061C49.56 32.9045 49.5517 32.8993 49.546 32.8917C49.5201 32.8562 49.5705 32.2917 49.558 32.0032C49.5515 31.8532 49.554 31.8077 49.412 31.7752C49.1595 31.7547 48.9056 31.7547 48.653 31.7752C48.511 31.8077 48.514 31.8532 48.508 32.0032C48.499 32.2182 48.5255 32.5747 48.5275 32.8707C48.5273 32.8775 48.5253 32.884 48.5216 32.8897C48.518 32.8954 48.5129 32.9 48.5068 32.9031C48.5008 32.9061 48.494 32.9074 48.4873 32.9069C48.4806 32.9064 48.4741 32.9041 48.4685 32.9002C48.2083 32.6696 47.9345 32.4547 47.6485 32.2567C47.4415 32.1382 47.4725 32.1637 47.028 32.6977C46.8655 32.8927 46.919 32.9577 47.2025 33.1792C47.572 33.4677 47.816 33.6017 47.8755 33.6737C47.9 33.7032 47.8615 33.7317 47.822 33.7327C47.4846 33.7152 47.1464 33.7222 46.81 33.7537C46.737 33.7712 46.715 33.8257 46.71 33.9147C46.7118 34.1204 46.7277 34.3257 46.7575 34.5292C46.7575 34.6597 46.887 34.6592 46.951 34.6642C47.2749 34.6865 47.6002 34.6729 47.921 34.6237C47.976 34.6122 47.984 34.6622 47.9615 34.6812C47.939 34.7002 47.902 34.7222 47.8675 34.7502C47.6304 34.9373 47.4151 35.1505 47.2255 35.3857C47.183 35.5522 47.3015 35.6422 47.605 35.9097C47.945 36.2097 47.8815 36.1157 48.5505 35.3312C48.5529 35.3278 48.5564 35.3253 48.5603 35.3241C48.5643 35.3229 48.5685 35.3231 48.5724 35.3246C48.5763 35.3261 48.5795 35.3288 48.5816 35.3324C48.5837 35.3359 48.5846 35.3401 48.584 35.3442C48.564 35.6122 48.5505 36.0762 48.5525 36.3062C48.5525 36.4957 48.666 36.4512 48.866 36.4682C49.031 36.4816 49.1969 36.4763 49.3605 36.4522C49.466 36.4297 49.5035 36.4407 49.5005 36.2757C49.496 36.0497 49.505 35.6757 49.485 35.3382C49.4848 35.3347 49.4857 35.3312 49.4876 35.3282C49.4894 35.3253 49.4922 35.3229 49.4954 35.3216C49.4986 35.3202 49.5022 35.3199 49.5056 35.3206C49.5091 35.3213 49.5122 35.3231 49.5145 35.3257C50.207 36.0992 50.1565 36.2332 50.4975 35.9322C50.801 35.6647 50.9195 35.5747 50.877 35.4072C50.6765 35.1644 50.4502 34.9441 50.202 34.7502C50.167 34.7222 50.129 34.7002 50.1075 34.6812C50.086 34.6622 50.0925 34.6192 50.148 34.6237C50.4761 34.6514 50.8056 34.6581 51.1345 34.6437C51.193 34.6427 51.2815 34.6737 51.3 34.5447ZM44.622 34.5447C44.6513 34.3287 44.6473 34.1095 44.61 33.8947C44.59 33.8077 44.587 33.7657 44.513 33.7557C44.1265 33.7057 43.368 33.7962 43.4695 33.6737C43.5295 33.6017 43.814 33.4677 44.1835 33.1792C44.4665 32.9577 44.5165 32.8957 44.3575 32.6977C43.9075 32.1322 43.922 32.1512 43.7375 32.2567C43.4515 32.454 43.1779 32.6689 42.9185 32.9002C42.9107 32.9054 42.9012 32.9075 42.8919 32.9059C42.8826 32.9043 42.8742 32.8992 42.8685 32.8917C42.8425 32.8557 42.8935 32.2917 42.881 32.0032C42.874 31.8532 42.8765 31.8077 42.735 31.7752C42.4823 31.7547 42.2283 31.7547 41.9755 31.7752C41.8345 31.8077 41.837 31.8532 41.8305 32.0032C41.8221 32.2182 41.8485 32.5747 41.85 32.8707C41.85 32.8775 41.8481 32.8842 41.8445 32.89C41.8408 32.8958 41.8357 32.9005 41.8296 32.9036C41.8235 32.9066 41.8167 32.9079 41.8099 32.9073C41.803 32.9067 41.7965 32.9043 41.791 32.9002C41.5307 32.6701 41.2573 32.4552 40.972 32.2567C40.7835 32.1492 40.7976 32.1377 40.3511 32.6977C40.1926 32.8977 40.243 32.9577 40.526 33.1792C40.8945 33.4672 41.1385 33.6017 41.198 33.6737C41.2225 33.7032 41.184 33.7317 41.148 33.7327C40.8105 33.7152 40.4721 33.7222 40.1356 33.7537C40.0626 33.7712 40.041 33.8257 40.0355 33.9147C40.0381 34.1204 40.054 34.3256 40.083 34.5292C40.083 34.6597 40.213 34.6592 40.2765 34.6642C40.6006 34.6865 40.926 34.6729 41.247 34.6237C41.3015 34.6122 41.3095 34.6622 41.2875 34.6812C41.2655 34.7002 41.2275 34.7222 41.193 34.7502C40.9561 34.9374 40.7409 35.1505 40.5515 35.3857C40.508 35.5522 40.6275 35.6422 40.9305 35.9097C41.271 36.2097 41.2265 36.1317 41.876 35.3312C41.8786 35.3281 41.8821 35.3259 41.8861 35.3248C41.89 35.3238 41.8941 35.324 41.8979 35.3254C41.9017 35.3269 41.905 35.3294 41.9072 35.3328C41.9095 35.3362 41.9107 35.3402 41.9105 35.3442C41.8965 35.6127 41.8765 36.0762 41.8795 36.3062C41.8795 36.4957 41.9915 36.4512 42.1925 36.4682C42.3571 36.4814 42.5227 36.476 42.686 36.4522C42.7925 36.4297 42.829 36.4407 42.826 36.2757C42.822 36.0497 42.8215 35.6757 42.811 35.3382C42.8107 35.3346 42.8115 35.331 42.8134 35.3278C42.8153 35.3247 42.8181 35.3223 42.8214 35.3209C42.8248 35.3195 42.8285 35.3192 42.832 35.3201C42.8356 35.3209 42.8387 35.3229 42.841 35.3257C43.5145 36.1157 43.482 36.2332 43.8235 35.9322C44.1265 35.6647 44.2465 35.5742 44.2035 35.4072C44.0029 35.1642 43.7762 34.9439 43.5275 34.7502C43.4925 34.7222 43.4555 34.7002 43.433 34.6812C43.4105 34.6622 43.418 34.6192 43.4745 34.6237C43.8023 34.6511 44.1315 34.6578 44.46 34.6437C44.5155 34.6427 44.6035 34.6737 44.6205 34.5447H44.622ZM37.944 34.5447C37.973 34.3287 37.9691 34.1096 37.9325 33.8947C37.912 33.8077 37.909 33.7657 37.835 33.7557C37.449 33.7057 36.6905 33.7962 36.792 33.6737C36.8515 33.6017 37.137 33.4672 37.5055 33.1792C37.7885 32.9577 37.8385 32.8957 37.68 32.6977C37.23 32.1332 37.2451 32.1512 37.0596 32.2567C36.7741 32.4549 36.5006 32.6697 36.2406 32.9002C36.2351 32.9043 36.2286 32.9067 36.2217 32.9073C36.2149 32.9079 36.2081 32.9066 36.202 32.9036C36.1959 32.9005 36.1908 32.8958 36.1871 32.89C36.1835 32.8842 36.1816 32.8775 36.1815 32.8707C36.1815 32.5747 36.21 32.2207 36.201 32.0032C36.195 31.8532 36.197 31.8077 36.056 31.7752C35.8031 31.7547 35.549 31.7547 35.2961 31.7752C35.1551 31.8077 35.157 31.8532 35.151 32.0032C35.142 32.2182 35.1685 32.5747 35.17 32.8707C35.1701 32.8775 35.1683 32.8842 35.1647 32.8901C35.1612 32.8959 35.1561 32.9006 35.15 32.9037C35.1439 32.9068 35.1371 32.9081 35.1303 32.9075C35.1235 32.9068 35.117 32.9043 35.1115 32.9002C34.8512 32.6701 34.5777 32.4553 34.2925 32.2567C34.105 32.1497 34.122 32.1347 33.672 32.6977C33.5135 32.8977 33.563 32.9577 33.8465 33.1792C34.215 33.4672 34.4595 33.6007 34.5195 33.6737C34.543 33.7027 34.504 33.7317 34.4655 33.7327C34.128 33.7149 33.7896 33.7219 33.453 33.7537C33.381 33.7712 33.359 33.8257 33.3505 33.9147C33.3537 34.1204 33.3704 34.3257 33.4005 34.5292C33.4005 34.6597 33.5301 34.6592 33.5941 34.6642C33.9179 34.6865 34.2432 34.6729 34.564 34.6237C34.6185 34.6122 34.627 34.6622 34.6055 34.6812C34.584 34.7002 34.5451 34.7222 34.5111 34.7502C34.2739 34.9375 34.0584 35.1506 33.8685 35.3857C33.8255 35.5522 33.9445 35.6422 34.2485 35.9097C34.5895 36.2097 34.5255 36.1157 35.1945 35.3312C35.1969 35.3278 35.2004 35.3253 35.2043 35.3241C35.2083 35.3229 35.2125 35.3231 35.2164 35.3246C35.2203 35.3261 35.2235 35.3288 35.2256 35.3324C35.2277 35.3359 35.2286 35.3401 35.228 35.3442C35.2135 35.6127 35.1935 36.0762 35.1965 36.3062C35.1965 36.4957 35.309 36.4512 35.5095 36.4682C35.673 36.482 35.8376 36.4774 36 36.4547C36.106 36.4322 36.1425 36.4432 36.1395 36.2782C36.1355 36.0522 36.135 35.6782 36.1245 35.3407C36.1244 35.3371 36.1253 35.3335 36.1273 35.3305C36.1292 35.3275 36.1321 35.3251 36.1354 35.3237C36.1387 35.3224 36.1424 35.3221 36.1459 35.3229C36.1495 35.3237 36.1526 35.3255 36.155 35.3282C36.828 36.1182 36.7955 36.2357 37.137 35.9347C37.4405 35.6672 37.5605 35.5767 37.517 35.4097C37.3164 35.1671 37.0901 34.9468 36.842 34.7527C36.8075 34.7247 36.769 34.7027 36.748 34.6837C36.727 34.6647 36.7326 34.6217 36.7886 34.6262C37.1161 34.6539 37.4451 34.6606 37.7735 34.6462C37.8375 34.6427 37.926 34.6737 37.9425 34.5447H37.944ZM31.2675 34.5447C31.2989 34.3288 31.2943 34.1092 31.254 33.8947C31.237 33.8072 31.231 33.7657 31.158 33.7557C30.771 33.7032 30.012 33.7962 30.114 33.6737C30.1735 33.6017 30.459 33.4672 30.8275 33.1792C31.1105 32.9577 31.1655 32.8927 31.003 32.6977C30.5575 32.1627 30.5885 32.1387 30.3815 32.2567C30.0963 32.4552 29.8229 32.6701 29.5625 32.9002C29.5573 32.9052 29.5507 32.9086 29.5435 32.9098C29.5364 32.9111 29.529 32.9103 29.5224 32.9074C29.5157 32.9045 29.51 32.8997 29.5061 32.8937C29.5021 32.8876 29.5 32.8805 29.5 32.8732C29.5 32.5772 29.5285 32.2232 29.5195 32.0057C29.513 31.8557 29.5155 31.8102 29.3745 31.7777C29.122 31.7572 28.8681 31.7572 28.6155 31.7777C28.4735 31.8102 28.476 31.8557 28.4695 32.0057C28.4595 32.2207 28.487 32.5772 28.4885 32.8732C28.4884 32.88 28.4865 32.8866 28.4829 32.8923C28.4793 32.898 28.4742 32.9026 28.4682 32.9056C28.4622 32.9087 28.4555 32.91 28.4487 32.9095C28.442 32.909 28.4355 32.9066 28.43 32.9027C28.1706 32.6715 27.897 32.4566 27.611 32.2592C27.4235 32.1522 27.4405 32.1372 26.9905 32.7002C26.832 32.9002 26.8815 32.9602 27.165 33.1817C27.534 33.4702 27.778 33.6042 27.838 33.6762C27.862 33.7057 27.8235 33.7342 27.784 33.7352C27.4465 33.7174 27.1081 33.7244 26.7715 33.7562C26.6995 33.7737 26.677 33.8282 26.6715 33.9172C26.6734 34.1229 26.6891 34.3282 26.7185 34.5317C26.7185 34.6622 26.848 34.6617 26.913 34.6667C27.2369 34.689 27.5622 34.6754 27.883 34.6262C27.9375 34.6147 27.945 34.6647 27.9235 34.6837C27.902 34.7027 27.864 34.7247 27.829 34.7527C27.5918 34.9398 27.3762 35.153 27.1865 35.3882C27.143 35.5547 27.2635 35.6447 27.5665 35.9122C27.907 36.2122 27.8435 36.1182 28.5125 35.3337C28.5149 35.3303 28.5184 35.3278 28.5223 35.3266C28.5263 35.3254 28.5305 35.3256 28.5344 35.3271C28.5383 35.3286 28.5415 35.3313 28.5436 35.3349C28.5457 35.3385 28.5466 35.3426 28.546 35.3467C28.491 36.6192 28.4495 36.4382 28.8275 36.4707C28.9923 36.4839 29.158 36.4785 29.3215 36.4547C29.4275 36.4322 29.464 36.4432 29.461 36.2782C29.457 36.0522 29.4565 35.6782 29.446 35.3407C29.4459 35.3371 29.4468 35.3335 29.4488 35.3305C29.4507 35.3275 29.4536 35.3251 29.4569 35.3237C29.4602 35.3224 29.4639 35.3221 29.4674 35.3229C29.471 35.3237 29.4741 35.3255 29.4765 35.3282C30.1495 36.1182 30.117 36.2357 30.4585 35.9347C30.7625 35.6667 30.882 35.5767 30.8385 35.4097C30.6379 35.1671 30.4116 34.9468 30.1635 34.7527C30.129 34.7247 30.0905 34.7027 30.0695 34.6837C30.0485 34.6647 30.054 34.6217 30.11 34.6262C30.4376 34.6536 30.7666 34.6603 31.095 34.6462C31.1605 34.6427 31.25 34.6737 31.266 34.5447H31.2675Z" fill="white"/>
<path d="M72.4551 42.4277C72.5506 44.3872 72.5876 46.5837 72.5361 47.7677C72.5161 48.2277 72.6101 48.9587 72.1335 49.0437C71.1045 49.2277 26.3625 49.0827 26.3115 49.0812C25.1295 49.0472 25.18 48.7712 25.158 47.8387C25.123 46.3862 25.137 43.1262 25.208 42.2442C25.252 41.7162 25.4855 41.7187 26.042 41.6857C27.359 41.6087 30.718 41.5682 37.322 41.6117C54.1105 41.7232 48.3776 41.5277 61.3321 41.5642C63.4821 41.5702 71.241 41.5672 71.67 41.5967C72.456 41.6502 72.4256 41.8287 72.4551 42.4277ZM51.3 45.9582C51.3286 45.7433 51.3245 45.5254 51.288 45.3117C51.2675 45.2247 51.2645 45.1817 51.1905 45.1717C50.8155 45.1217 50.0455 45.2147 50.1475 45.0907C50.2075 45.0177 50.492 44.8837 50.861 44.5952C51.1445 44.3737 51.1945 44.3117 51.0355 44.1137C50.578 43.5422 50.597 43.5682 50.415 43.6727C50.1293 43.8704 49.8558 44.0853 49.596 44.3162C49.5907 44.3205 49.5841 44.3232 49.5773 44.3239C49.5704 44.3246 49.5635 44.3234 49.5573 44.3202C49.5511 44.3171 49.546 44.3123 49.5425 44.3064C49.539 44.3004 49.5373 44.2936 49.5375 44.2867C49.56 43.2732 49.607 43.2367 49.4105 43.1912C49.1579 43.1722 48.9042 43.1722 48.6515 43.1912C48.5095 43.2247 48.5125 43.2702 48.5065 43.4192C48.4975 43.6342 48.5235 43.9907 48.526 44.2867C48.526 44.2935 48.5241 44.3002 48.5205 44.306C48.5168 44.3118 48.5117 44.3165 48.5056 44.3195C48.4995 44.3226 48.4927 44.3239 48.4858 44.3233C48.479 44.3227 48.4725 44.3202 48.467 44.3162C48.2077 44.0845 47.9338 43.8695 47.647 43.6727C47.44 43.5537 47.474 43.5782 47.0265 44.1137C46.8635 44.3082 46.9175 44.3737 47.201 44.5952C47.5705 44.8837 47.814 45.0177 47.874 45.0907C47.898 45.1202 47.86 45.1487 47.8205 45.1497C47.4832 45.1318 47.1449 45.1385 46.8085 45.1697C46.7355 45.1872 46.7135 45.2427 46.7085 45.3322C46.7106 45.5377 46.7265 45.7428 46.756 45.9462C46.756 46.0762 46.8855 46.0752 46.9495 46.0802C47.2734 46.102 47.5986 46.0888 47.9195 46.0407C47.9745 46.0282 47.9825 46.0782 47.96 46.0972C47.9375 46.1162 47.9005 46.1382 47.866 46.1662C47.6277 46.3525 47.4111 46.5652 47.2205 46.8002C47.178 46.9677 47.2965 47.0577 47.6 47.3252C47.94 47.6252 47.8601 47.5157 48.5455 46.7457C48.5481 46.7427 48.5515 46.7405 48.5554 46.7395C48.5592 46.7386 48.5632 46.7388 48.5669 46.7402C48.5706 46.7417 48.5738 46.7442 48.5759 46.7475C48.5781 46.7508 48.5792 46.7547 48.579 46.7587C48.559 47.0267 48.5455 47.4907 48.5475 47.7217C48.5475 47.9102 48.661 47.8657 48.861 47.8827C49.026 47.8961 49.1919 47.8907 49.3555 47.8667C49.461 47.8442 49.4985 47.8562 49.4955 47.6902C49.491 47.4652 49.5 47.0902 49.48 46.7527C49.4797 46.7491 49.4806 46.7456 49.4825 46.7426C49.4844 46.7395 49.4872 46.7372 49.4905 46.7359C49.4938 46.7346 49.4975 46.7344 49.5009 46.7354C49.5043 46.7363 49.5074 46.7384 49.5095 46.7412C50.1835 47.5302 50.1515 47.6477 50.4925 47.3467C50.796 47.0792 50.9145 46.9892 50.872 46.8217C50.6715 46.5789 50.4452 46.3586 50.197 46.1647C50.162 46.1367 50.124 46.1147 50.1025 46.0957C50.081 46.0767 50.0875 46.0342 50.143 46.0392C50.4711 46.0665 50.8006 46.0729 51.1295 46.0582C51.193 46.0567 51.2815 46.0882 51.3 45.9582ZM44.622 45.9582C44.6511 45.7433 44.647 45.5253 44.61 45.3117C44.59 45.2247 44.587 45.1817 44.513 45.1717C44.1375 45.1217 43.3675 45.2147 43.4695 45.0907C43.5295 45.0177 43.814 44.8837 44.1835 44.5952C44.4665 44.3737 44.5165 44.3117 44.3575 44.1137C43.9 43.5422 43.919 43.5682 43.7375 43.6727C43.4515 43.87 43.178 44.0849 42.9185 44.3162C42.9131 44.3204 42.9066 44.3231 42.8997 44.3238C42.8928 44.3245 42.8859 44.3232 42.8797 44.3201C42.8735 44.317 42.8684 44.3122 42.8648 44.3063C42.8612 44.3004 42.8594 44.2936 42.8595 44.2867C42.8825 43.2607 42.927 43.2367 42.733 43.1912C42.4802 43.1722 42.2264 43.1722 41.9735 43.1912C41.8325 43.2247 41.835 43.2702 41.8285 43.4192C41.8195 43.6342 41.846 43.9907 41.848 44.2867C41.8482 44.2936 41.8464 44.3004 41.8428 44.3063C41.8392 44.3122 41.8341 44.317 41.8279 44.3201C41.8217 44.3232 41.8148 44.3245 41.8079 44.3238C41.801 44.3231 41.7945 44.3204 41.789 44.3162C41.5296 44.085 41.2561 43.8701 40.97 43.6727C40.7836 43.5657 40.8005 43.5487 40.349 44.1137C40.1905 44.3112 40.241 44.3737 40.524 44.5952C40.8925 44.8832 41.136 45.0177 41.196 45.0907C41.2205 45.1202 41.182 45.1487 41.146 45.1497C40.8085 45.1318 40.4701 45.1384 40.1335 45.1697C40.0605 45.1872 40.039 45.2427 40.0335 45.3322C40.0361 45.5377 40.052 45.7428 40.081 45.9462C40.081 46.0762 40.2111 46.0752 40.2746 46.0802C40.5985 46.102 40.9239 46.0888 41.245 46.0407C41.2995 46.0282 41.3075 46.0782 41.2855 46.0972C41.2635 46.1162 41.2255 46.1382 41.191 46.1662C40.9519 46.3525 40.7345 46.5652 40.543 46.8002C40.4995 46.9677 40.619 47.0577 40.922 47.3252C41.2626 47.6252 41.1825 47.5157 41.8675 46.7457C41.8701 46.7426 41.8736 46.7403 41.8776 46.7393C41.8815 46.7382 41.8856 46.7385 41.8894 46.7399C41.8932 46.7413 41.8965 46.7439 41.8987 46.7473C41.901 46.7506 41.9022 46.7546 41.902 46.7587C41.888 47.0272 41.868 47.4907 41.871 47.7217C41.871 47.9102 41.983 47.8657 42.184 47.8827C42.3486 47.8961 42.5142 47.8907 42.6775 47.8667C42.784 47.8442 42.8205 47.8562 42.8175 47.6902C42.8135 47.4652 42.8215 47.0902 42.8025 46.7527C42.8024 46.7492 42.8034 46.7457 42.8054 46.7427C42.8073 46.7398 42.8102 46.7375 42.8135 46.7363C42.8168 46.735 42.8204 46.7348 42.8238 46.7357C42.8272 46.7366 42.8303 46.7385 42.8325 46.7412C43.506 47.5302 43.4735 47.6477 43.815 47.3467C44.118 47.0792 44.238 46.9887 44.195 46.8217C43.9944 46.5786 43.7677 46.3583 43.519 46.1647C43.484 46.1367 43.447 46.1147 43.4245 46.0957C43.402 46.0767 43.4095 46.0342 43.466 46.0392C43.7938 46.0665 44.123 46.0729 44.4515 46.0582C44.5155 46.0567 44.6035 46.0882 44.6205 45.9582H44.622ZM37.944 45.9582C37.9727 45.7433 37.9689 45.5254 37.9325 45.3117C37.912 45.2247 37.909 45.1817 37.835 45.1717C37.46 45.1217 36.69 45.2147 36.792 45.0907C36.852 45.0177 37.137 44.8837 37.5055 44.5952C37.7885 44.3737 37.8385 44.3117 37.68 44.1137C37.226 43.5467 37.2441 43.5672 37.0596 43.6727C36.7735 43.87 36.4999 44.0849 36.2406 44.3162C36.2351 44.3204 36.2286 44.3231 36.2217 44.3238C36.2148 44.3245 36.2079 44.3232 36.2017 44.3201C36.1955 44.317 36.1904 44.3122 36.1868 44.3063C36.1832 44.3004 36.1814 44.2936 36.1815 44.2867C36.1885 43.2917 36.269 43.2417 36.056 43.1912C35.8031 43.1722 35.549 43.1722 35.2961 43.1912C35.1551 43.2247 35.157 43.2702 35.151 43.4192C35.142 43.6342 35.168 43.9907 35.17 44.2867C35.1703 44.2936 35.1686 44.3004 35.1651 44.3064C35.1616 44.3123 35.1565 44.3171 35.1503 44.3202C35.1441 44.3234 35.1372 44.3246 35.1303 44.3239C35.1235 44.3232 35.1169 44.3205 35.1115 44.3162C34.8519 44.0852 34.5784 43.8703 34.2925 43.6727C34.1925 43.6152 34.1425 43.5782 34.049 43.6687C33.916 43.8107 33.7935 43.9617 33.672 44.1137C33.513 44.3137 33.563 44.3737 33.8465 44.5952C34.215 44.8832 34.4595 45.0172 34.5195 45.0907C34.543 45.1197 34.504 45.1487 34.4655 45.1497C34.128 45.1315 33.7896 45.1382 33.453 45.1697C33.381 45.1872 33.359 45.2427 33.3505 45.3322C33.3537 45.5377 33.3704 45.7428 33.4005 45.9462C33.4005 46.0762 33.5301 46.0752 33.5941 46.0802C33.9179 46.102 34.2431 46.0888 34.564 46.0407C34.6185 46.0282 34.627 46.0782 34.6055 46.0972C34.584 46.1162 34.5451 46.1382 34.5111 46.1662C34.2727 46.3528 34.0561 46.5654 33.8651 46.8002C33.8216 46.9677 33.941 47.0577 34.245 47.3252C34.586 47.6252 34.5236 47.5312 35.1911 46.7457C35.1936 46.7427 35.197 46.7405 35.2009 46.7395C35.2047 46.7386 35.2087 46.7388 35.2124 46.7402C35.2161 46.7417 35.2193 46.7442 35.2214 46.7475C35.2236 46.7508 35.2247 46.7547 35.2245 46.7587C35.21 47.0272 35.19 47.4907 35.193 47.7217C35.193 47.9102 35.3055 47.8657 35.506 47.8827C35.6707 47.8966 35.8365 47.8917 36 47.8682C36.106 47.8457 36.1425 47.8577 36.1395 47.6917C36.1355 47.4667 36.1435 47.0917 36.1245 46.7542C36.1246 46.7507 36.1257 46.7472 36.1277 46.7444C36.1297 46.7415 36.1326 46.7393 36.1359 46.738C36.1392 46.7368 36.1428 46.7366 36.1462 46.7374C36.1496 46.7382 36.1527 46.7401 36.155 46.7427C36.828 47.5317 36.7955 47.6492 37.137 47.3482C37.4405 47.0807 37.5605 46.9902 37.517 46.8232C37.3164 46.5805 37.0901 46.3602 36.842 46.1662C36.8075 46.1382 36.769 46.1162 36.748 46.0972C36.727 46.0782 36.7326 46.0357 36.7886 46.0407C37.1161 46.068 37.4451 46.0744 37.7735 46.0597C37.8375 46.0567 37.9255 46.0882 37.9425 45.9582H37.944ZM31.2675 45.9582C31.2986 45.7434 31.294 45.525 31.254 45.3117C31.237 45.2242 31.231 45.1817 31.158 45.1717C30.785 45.1217 30.0115 45.2147 30.114 45.0907C30.174 45.0177 30.459 44.8837 30.8275 44.5952C31.1105 44.3737 31.166 44.3082 31.003 44.1137C30.5605 43.5847 30.591 43.5527 30.3815 43.6727C30.0955 43.8701 29.822 44.085 29.5625 44.3162C29.5572 44.3217 29.5504 44.3253 29.5429 44.3267C29.5354 44.3281 29.5276 44.3271 29.5207 44.3238C29.5138 44.3206 29.5081 44.3152 29.5044 44.3086C29.5007 44.3019 29.4992 44.2943 29.5 44.2867C29.507 43.2917 29.5875 43.2417 29.3745 43.1912C29.1219 43.1722 28.8682 43.1722 28.6155 43.1912C28.4205 43.2372 28.4655 43.2587 28.4885 44.2867C28.4888 44.2936 28.4871 44.3004 28.4836 44.3064C28.4801 44.3123 28.475 44.3171 28.4688 44.3202C28.4626 44.3234 28.4557 44.3246 28.4488 44.3239C28.442 44.3232 28.4354 44.3205 28.43 44.3162C28.1704 44.0852 27.8969 43.8703 27.611 43.6727C27.511 43.6152 27.461 43.5782 27.3675 43.6687C27.2345 43.8107 27.112 43.9617 26.9905 44.1137C26.8315 44.3137 26.8815 44.3737 27.165 44.5952C27.534 44.8837 27.778 45.0177 27.838 45.0907C27.862 45.1202 27.8235 45.1487 27.784 45.1497C27.4465 45.1315 27.1081 45.1382 26.7715 45.1697C26.6995 45.1872 26.677 45.2427 26.6715 45.3322C26.6735 45.5377 26.6892 45.7428 26.7185 45.9462C26.7185 46.0762 26.848 46.0752 26.913 46.0802C27.2369 46.1018 27.5621 46.0886 27.883 46.0407C27.9375 46.0282 27.945 46.0782 27.9235 46.0972C27.902 46.1162 27.864 46.1382 27.829 46.1662C27.592 46.3529 27.3767 46.5655 27.187 46.8002C27.1435 46.9677 27.264 47.0577 27.567 47.3252C27.9075 47.6252 27.8395 47.5252 28.513 46.7457C28.5156 46.7427 28.519 46.7405 28.5229 46.7395C28.5267 46.7386 28.5307 46.7388 28.5344 46.7402C28.5381 46.7417 28.5413 46.7442 28.5434 46.7475C28.5456 46.7508 28.5467 46.7547 28.5465 46.7587C28.5335 47.0272 28.512 47.4907 28.515 47.7217C28.515 47.9102 28.6275 47.8657 28.828 47.8827C28.9928 47.8961 29.1585 47.8907 29.322 47.8667C29.428 47.8442 29.4645 47.8562 29.4615 47.6902C29.4575 47.4652 29.4655 47.0902 29.4465 46.7527C29.4466 46.7492 29.4477 46.7457 29.4497 46.7429C29.4517 46.74 29.4546 46.7378 29.4579 46.7365C29.4612 46.7353 29.4648 46.7351 29.4682 46.7359C29.4716 46.7367 29.4747 46.7386 29.477 46.7412C30.15 47.5317 30.1175 47.6502 30.459 47.3502C30.763 47.0822 30.8825 46.9922 30.839 46.8252C30.6384 46.5825 30.4121 46.3622 30.164 46.1682C30.1295 46.1402 30.091 46.1182 30.07 46.0992C30.049 46.0802 30.0545 46.0377 30.1105 46.0427C30.4381 46.07 30.7671 46.0764 31.0955 46.0617C31.1605 46.0567 31.25 46.0882 31.266 45.9582H31.2675Z" fill="white"/>
<path d="M68.5326 75.0769C68.5916 75.2439 68.9011 76.1499 67.7126 75.3239C67.3626 75.0799 67.0406 74.9174 66.7336 74.6934C64.9136 73.3669 63.5751 72.2229 62.3336 72.3864C61.4046 72.5089 60.2151 73.3444 61.4281 74.9439C52.4606 74.9439 42.1011 74.9854 39.3106 74.9654C41.3106 72.6329 40.6751 73.2299 42.0366 70.7939C42.2816 70.3554 42.5866 69.9519 42.8411 69.5159C43.5411 68.3094 42.4031 67.6474 41.6411 67.7409C40.0791 67.9329 39.3086 69.8679 37.5631 71.0679C37.2846 71.2594 35.1316 72.4069 34.9531 72.1534C36.0936 70.4789 35.5581 70.9369 38.5181 67.8274C39.2457 67.12 40.1689 66.6471 41.1681 66.4699C42.2306 66.2249 44.1526 68.3864 45.4336 67.6439C45.6911 67.4939 46.4981 67.3024 46.2191 66.4689C46.0366 65.9234 53.6691 66.7509 57.7311 66.4189C58.6006 66.3474 57.2546 66.9124 56.3486 67.4569C55.4271 68.0104 55.5636 69.0104 56.4236 69.5639C57.4281 70.2109 58.8361 69.8229 60.2326 69.3389C60.8056 69.1389 60.9826 69.1539 62.9291 69.4779C63.2756 69.5359 63.2436 69.5869 65.5906 71.4574C66.7916 72.4119 67.8346 73.0964 68.5326 75.0769Z" fill="white"/>
<path d="M69.0174 63.1114C67.4504 62.2499 66.8449 63.1489 66.3674 62.5874C66.1094 62.2839 65.8604 61.9729 65.6104 61.6669C67.2274 61.5209 68.3234 61.9099 69.0174 63.1114Z" fill="white"/>
<path d="M41.5596 59.3594C43.4471 59.2744 63.6041 59.2783 65.3681 59.2783C64.8236 59.9088 65.1681 60.2724 65.5421 61.0174C64.3741 61.0854 64.4586 61.1484 63.8746 60.8614C61.8321 59.8579 60.3471 60.8613 59.6111 60.7298C59.2251 60.6618 58.9191 60.6479 55.3196 60.6914C53.9986 60.7074 53.9006 60.8554 53.8546 60.5614C53.8296 60.3984 53.7486 60.2444 53.7151 60.0809C53.6766 59.8924 53.5336 59.7734 53.3906 59.8094C53.3026 59.8314 53.1696 60.1499 53.1796 60.2404C53.2716 61.0474 53.6361 60.7528 50.1856 60.7528C50.2461 60.1863 50.3161 60.0383 50.0416 59.9603C49.6916 59.8603 49.6856 60.2778 49.5816 60.7723H48.3001C48.0051 60.1903 47.4326 60.1079 46.8501 60.0539C45.8732 59.9867 44.9011 59.8617 43.9391 59.6794C43.2566 59.6174 43.3891 59.7444 41.6271 59.6149C41.6071 59.5439 41.5891 59.4719 41.5596 59.3594Z" fill="white"/>
<path d="M65.8906 78.7105C51.8461 78.7105 46.2446 78.848 38.7631 78.657C34.6211 78.5515 29.8846 78.737 29.8691 78.577C34.8036 77.696 35.2191 77.5955 37.1736 76.433C39.1436 75.262 36.6236 75.766 43.4771 75.7295C51.1841 75.689 58.3126 75.697 59.5446 75.7135C62.3976 75.751 62.4866 75.649 62.7496 75.896C63.1941 76.3035 63.6157 76.7351 64.0126 77.189C64.4376 77.6895 65.4001 78.1575 65.8906 78.7105Z" fill="white"/>
<path d="M54.0352 61.3266C62.7707 61.3266 57.0397 61.0721 57.0092 62.9921C57.0012 63.5261 57.6367 63.4176 54.4092 63.2921C54.2965 62.6938 54.1718 62.0386 54.0352 61.3266Z" fill="white"/>
<path d="M53.4197 61.3751C53.5472 62.0281 53.6697 62.6626 53.8042 63.3376C52.4832 63.4966 51.2042 63.2271 49.8457 63.2786C49.9237 62.6596 49.9892 62.0856 50.0767 61.5161C50.1277 61.1836 50.5387 61.5436 53.4197 61.3751Z" fill="white"/>
<path d="M49.5106 23.1407C49.5771 23.3492 49.5531 23.4717 49.3171 23.4802C49.1571 23.4857 47.9031 23.4802 47.7396 23.4802C47.4296 23.4802 47.4071 23.3697 47.4801 23.1397C47.5771 22.8357 47.7636 22.1057 47.9211 21.6627C47.9271 21.6452 47.9267 21.626 47.9198 21.6087C47.9129 21.5915 47.9 21.5773 47.8836 21.5687C47.7211 21.4634 47.5994 21.3059 47.5387 21.1221C47.478 20.9383 47.4818 20.7392 47.5495 20.5579C47.6173 20.3765 47.7449 20.2237 47.9113 20.1248C48.0777 20.0258 48.2729 19.9867 48.4646 20.0137C49.1146 20.0047 49.4146 20.2607 49.4871 20.8137C49.5094 20.9636 49.4849 21.1167 49.4169 21.2522C49.3489 21.3876 49.2407 21.4987 49.1071 21.5702C49.0904 21.5786 49.0774 21.5928 49.0705 21.6101C49.0636 21.6274 49.0633 21.6467 49.0696 21.6642C49.2296 22.1052 49.4136 22.8362 49.5106 23.1407Z" fill="white"/>
<path d="M63.2444 65C62.0289 63.847 61.9614 63.84 61.8119 63.8715C60.5269 64.144 59.8839 64.5465 58.6619 64.287C57.2917 64.0281 55.8956 63.9323 54.5029 64.0015C54.552 64.3898 54.6234 64.775 54.7169 65.155C54.8074 65.67 54.1894 65.829 54.0974 65.3C53.8799 64.05 53.9474 64.0025 53.5704 64C51.9504 63.991 52.6289 63.926 49.7309 63.926C49.6489 65.199 49.7004 65.406 49.3709 65.406C48.8539 65.406 49.0574 64.53 49.1509 63.9715C46.0949 63.7215 47.0434 64.01 46.4554 63.658C46.6394 63.4615 46.6909 63.3265 46.9744 63.334C47.5977 63.2759 48.2255 63.2847 48.8469 63.3605C49.4034 63.4935 49.3009 63.14 49.4549 61.3695C48.3199 61.2145 48.3729 61.187 48.1574 61.7335C47.4379 63.5615 44.8319 62.9985 42.5664 62.9985C42.6524 63.125 44.6584 64.813 45.5119 65.517C45.7589 65.7215 46.5619 65.528 49.3619 65.643C51.6229 65.737 50.6789 65.8615 58.9944 65.787C59.5594 65.5293 60.1734 65.3964 60.7944 65.3975C61.7027 65.3071 62.618 65.3117 63.5254 65.411C63.4456 65.265 63.3515 65.1274 63.2444 65Z" fill="white"/>
<path d="M49.3359 19.1793C49.3424 19.3213 49.0804 19.2883 48.9589 19.2908C48.8209 19.2908 48.1679 19.2908 48.0314 19.2908C47.9099 19.2883 47.6479 19.3213 47.6544 19.1793C47.6799 18.6238 47.7544 18.1123 48.3109 17.9963C48.4323 17.9713 48.5575 17.9713 48.6789 17.9963C49.2334 18.1123 49.3104 18.6248 49.3359 19.1793Z" fill="#AFE2FC"/>
<path d="M47.3459 60.8932C47.8274 60.9827 47.4669 61.8542 46.8154 62.0762C44.5234 62.8567 43.0654 60.9762 35.6314 64.3367C33.8019 65.1637 34.5989 65.9462 34.9719 65.6927C35.1939 65.543 35.4017 65.3735 35.5929 65.1862C36.1289 64.6572 40.2059 63.5477 40.2164 63.5467C41.4929 63.4217 42.1944 63.3892 43.0594 64.3347C44.2169 65.5997 45.9424 66.4482 45.3624 66.8432C44.1869 67.6432 42.2699 65.3487 40.7124 65.8012C38.8929 66.3292 37.5059 67.6442 37.2334 68.2727C37.1869 68.3802 32.7259 72.5972 34.8604 72.9182C35.4104 73.0002 35.4889 72.8252 37.1829 72.1322C38.0434 71.7822 38.6364 71.1737 40.5714 69.1037C41.0074 68.6372 42.0244 68.1492 42.3289 68.7602C42.5029 69.1102 42.1379 69.0732 40.3949 72.3962C39.5399 74.0267 39.0449 73.8422 37.6544 75.1612C37.1939 75.5079 36.7059 75.8168 36.1954 76.0847C35.1054 76.8347 33.8109 76.9522 29.7539 77.9972C28.3819 78.3507 27.7039 78.8447 25.8039 78.6582C25.5584 78.6342 25.6224 78.6542 24.0039 77.0142C23.8399 76.8477 23.5014 76.8902 23.7039 76.1577C23.9159 75.4002 22.5239 74.3047 21.9179 73.7662C20.6314 72.6232 20.2994 72.7052 20.5619 72.4367C21.1322 71.7979 21.7347 71.1886 22.3669 70.6112C23.0729 70.1426 23.659 69.5147 24.0779 68.7782C26.0099 65.7532 25.2779 66.3282 27.2779 64.4107C28.2249 63.5032 28.5314 63.6247 29.1489 62.5637C30.3919 60.4277 31.8244 59.9087 32.6989 59.2512C33.3519 58.7602 33.4329 58.8932 35.4744 59.0617C34.6374 60.4117 33.5194 59.7577 31.1554 62.3317C30.7384 62.7857 31.3654 63.1182 31.7054 62.8122C33.0994 61.5467 33.3479 61.1622 34.7514 60.6317C35.6389 60.2947 35.8044 59.4437 36.8394 59.1932C38.3109 58.8377 39.7524 58.1677 40.8014 59.6457C39.8904 59.7662 39.4859 59.7357 38.7489 60.1582C35.8629 61.8142 34.5799 61.5242 33.0359 63.6442C32.8359 63.9187 33.1444 64.4412 33.5014 64.0682C33.8084 63.7467 33.9594 63.0852 35.7629 62.3337C39.4729 60.7877 39.0684 60.4052 41.4159 60.3887C42.9159 60.3777 44.2804 60.3717 44.8924 60.6002C45.6749 60.8937 46.3499 60.7087 47.3459 60.8932Z" fill="#FAFAFA"/>
<path d="M31.1868 59.3848C28.1253 61.6093 31.1013 60.5763 27.3288 60.7643C26.9913 60.7808 26.6528 60.7673 26.2643 60.7673C26.3548 60.5483 26.4193 60.3673 26.5028 60.1993C26.6448 59.9123 26.2598 59.6493 26.0903 59.9188C25.3578 61.0788 26.4673 60.6508 21.9973 60.6508C22.3388 60.0628 22.4728 59.9698 22.2028 59.7473C21.9908 59.5728 21.7998 59.8678 21.5188 60.3618C21.3948 60.5793 21.4388 60.5668 19.6728 60.5288C19.2428 60.5198 18.7828 60.2868 18.5073 60.5988C18.1358 61.0193 18.7403 60.9788 20.9823 61.2028C20.8508 61.4658 20.0963 63.0603 19.7823 63.0733C18.4323 63.1283 18.2183 62.7233 17.7123 63.0053C17.6745 63.0318 17.6438 63.0669 17.6226 63.1079C17.6014 63.1488 17.5905 63.1943 17.5908 63.2403C17.6253 63.4483 17.7723 63.4328 19.5503 63.7353C18.9898 64.6888 18.6678 65.0458 19.0503 65.2483C19.2608 65.3593 19.3668 65.1908 19.4548 65.0538C20.1618 63.9538 19.9443 63.6908 20.9358 63.6998C23.7113 63.7238 22.8818 63.7048 24.1888 63.8498C24.0171 64.2043 23.8982 64.582 23.8358 64.9708C23.8143 65.0396 23.8202 65.1141 23.8522 65.1787C23.8842 65.2432 23.9399 65.293 24.0077 65.3175C24.0755 65.3421 24.1501 65.3395 24.2161 65.3104C24.282 65.2813 24.3342 65.2279 24.3618 65.1613C25.0658 63.6783 24.1508 63.8303 26.7118 63.8303C24.5053 66.2183 25.8473 65.7338 23.4503 65.7238C18.3883 65.7028 15.8103 65.7528 14.7408 65.6763C13.6248 65.5963 14.1408 65.3763 14.7743 64.4763C18.5648 59.0763 18.4893 59.2728 18.9323 59.2693C29.7708 59.1918 26.2218 59.3848 31.1868 59.3848Z" fill="white"/>
<path d="M26.01 61.4757C26.0785 61.3362 26.129 61.3647 29.089 61.3647C27.626 63.4942 28.439 63.1312 25.2295 63.1312C25.477 62.5997 25.738 62.0352 26.01 61.4757Z" fill="white"/>
<path d="M25.3153 79.4043C25.4783 79.6543 25.8383 80.0988 25.4463 80.4323C24.7601 81.0346 24.0364 81.5928 23.2798 82.1038C23.1298 81.9038 22.9908 81.7103 22.8428 81.5088C23.6638 80.8103 24.4828 80.1138 25.3153 79.4043Z" fill="#FAFAFA"/>
<path d="M24.7432 78.7544C24.7932 78.9094 24.6932 78.9914 24.6067 79.0939C24.5067 79.2084 23.0567 80.4599 22.4412 81.0489C22.2746 80.8383 22.097 80.6367 21.9092 80.4449C22.6907 79.7109 23.7837 78.7834 24.2517 78.2354C24.4222 78.4024 24.7647 78.6699 24.7432 78.7544Z" fill="#FAFAFA"/>
<path d="M25.4544 61.3094C24.5724 63.1544 24.6774 63.3094 23.9909 63.1694C23.4409 63.0589 23.3169 63.1129 20.6709 63.1129C21.5744 61.3154 21.5024 61.2299 21.9259 61.2479C22.8659 61.2879 22.2954 61.1999 25.4544 61.3094Z" fill="white"/>
<path d="M23.2286 77.3252L23.7981 77.7967C23.0106 78.5517 22.2431 79.2867 21.4646 80.0337C21.2326 79.8392 21.0411 79.6777 20.8486 79.5167C22.3316 78.2002 21.6996 78.7847 23.2286 77.3252Z" fill="#FAFAFA"/>
<path d="M21.9108 75.3172C21.9142 75.5432 21.8358 75.7629 21.6899 75.9356C21.5441 76.1082 21.3407 76.2223 21.1173 76.2567C20.8809 76.2553 20.6536 76.1658 20.4797 76.0058C20.3058 75.8457 20.1978 75.6266 20.1768 75.3912C20.1973 75.1525 20.2956 74.927 20.4565 74.7495C20.6175 74.5719 20.8322 74.4521 21.0678 74.4082C21.2929 74.436 21.501 74.5425 21.6552 74.7088C21.8095 74.8751 21.9 75.0906 21.9108 75.3172Z" fill="#AFE2FC"/>
<path d="M21.039 77.8032C21.0119 78.0869 20.8855 78.352 20.682 78.5517C20.4786 78.7514 20.2112 78.8729 19.927 78.8947C19.689 78.8599 19.473 78.7362 19.3227 78.5485C19.1724 78.3607 19.0989 78.123 19.117 77.8832C19.1274 77.6268 19.2324 77.3833 19.4117 77.1997C19.591 77.016 19.8319 76.9053 20.088 76.8887C20.3321 76.8946 20.5652 76.9917 20.7413 77.161C20.9173 77.3303 21.0235 77.5594 21.039 77.8032Z" fill="#006CA3"/>
<path d="M18.8747 72.9311C19.0411 72.9719 19.1898 73.0652 19.2988 73.1973C19.4078 73.3294 19.4713 73.4931 19.4797 73.6641C19.487 73.7711 19.4712 73.8784 19.4335 73.9788C19.3958 74.0792 19.337 74.1703 19.2611 74.246C19.1852 74.3217 19.0939 74.3803 18.9935 74.4178C18.893 74.4552 18.7857 74.4707 18.6787 74.4632C18.5717 74.4556 18.4676 74.4252 18.3734 74.374C18.2792 74.3229 18.197 74.2521 18.1325 74.1664C18.068 74.0808 18.0225 73.9823 17.9993 73.8777C17.976 73.773 17.9755 73.6645 17.9977 73.5596C18.0441 73.367 18.1582 73.1976 18.3192 73.0822C18.4803 72.9668 18.6774 72.9132 18.8747 72.9311Z" fill="white"/>
<path d="M16.2538 74.4929C16.3922 74.4299 16.5437 74.4009 16.6955 74.4084C16.8474 74.4158 16.9953 74.4594 17.1269 74.5356C17.2586 74.6117 17.37 74.7183 17.4521 74.8463C17.5342 74.9743 17.5845 75.1201 17.5988 75.2715C17.5563 75.962 17.2368 76.3285 16.6218 76.3795C15.6728 76.4575 15.2668 75.1099 16.2538 74.4929Z" fill="#006CA3"/>
<path d="M14.4334 75.945C14.4894 76.155 14.4234 76.2725 14.2389 76.4165C11.8974 78.2435 11.7389 78.6 11.3084 78.608C9.11692 78.6475 7.62892 78.618 5.84092 78.5685C4.86292 78.541 5.00142 77.9235 4.66992 75.334C7.22742 75.6235 13.1409 75.491 13.1514 75.492C14.6199 75.5535 14.3394 75.591 14.4334 75.945Z" fill="white"/>
<path d="M93.0179 79.1791C97.3513 81.2521 97.6544 81.3996 97.4604 81.8291C97.4366 81.8801 97.4029 81.9258 97.3614 81.9637C97.3198 82.0016 97.2711 82.0309 97.2182 82.0499C97.1652 82.0689 97.109 82.0771 97.0528 82.0743C96.9966 82.0714 96.9416 82.0574 96.8909 82.0331C96.8909 82.0331 87.1829 77.2286 86.6819 76.9511C83.5639 75.2266 84.6288 75.7241 83.5528 74.8571C82.0089 73.6136 82.9994 74.4776 81.5173 73.5241C80.3174 72.7506 79.8283 71.3926 77.7403 68.5606C76.2808 66.5801 75.7478 66.4641 74.4564 65.0796C73.6323 64.2527 72.8858 63.3519 72.2263 62.3886C71.6568 61.5561 72.0453 61.5346 70.4698 60.4086C69.9441 60.0366 69.3335 59.8024 68.6938 59.7276C66.7413 59.4916 66.7724 59.6951 66.0209 59.8521C65.6644 59.9266 66.1649 60.5521 66.5509 60.7291C69.0674 61.8891 67.8639 60.0791 71.8909 65.5126C72.1494 65.8626 71.6163 66.1126 71.3559 65.9431C70.2058 65.1906 69.4794 63.8671 67.4814 63.4431L67.4418 63.4986C68.4858 64.8296 68.6229 65.0666 69.0699 65.5951C69.4654 66.0621 70.1199 66.4831 70.1159 66.7341C70.1064 67.4116 69.0158 66.6211 68.4893 65.9691C66.1894 63.1191 67.1209 64.2731 65.8619 63.1136C65.5226 62.7026 65.1357 62.3333 64.7094 62.0136C62.5054 60.9961 62.4549 61.2076 61.6064 61.2066C60.3944 61.2066 58.3304 62.5191 57.9979 62.7876C57.3839 63.2836 58.7624 63.6121 59.3479 63.6076C60.6829 63.5976 61.7664 62.5151 62.7979 63.5421C63.1919 63.9341 63.6329 64.2796 64.0229 64.6761C66.0994 66.7861 64.2553 65.4611 67.6003 67.3946C67.8178 67.5206 67.8689 67.8946 67.7949 67.9446C67.4729 68.1776 67.3789 67.9271 65.4189 67.0061C64.7644 66.6986 63.3189 66.0186 62.9114 66.0311C60.5249 66.1016 59.8194 66.0716 58.8324 66.8461C57.1009 68.2041 55.9779 68.0776 56.7554 68.8276C57.8359 69.8696 59.8244 68.2361 61.0674 68.4776C62.6009 68.7746 62.8614 68.4516 64.0639 69.3476C67.3204 71.7751 69.0294 72.7556 69.4793 76.0051C69.4766 76.0974 69.452 76.1877 69.4076 76.2687C69.3632 76.3497 69.3003 76.419 69.2239 76.471C69.1476 76.523 69.0601 76.5562 68.9685 76.5678C68.8768 76.5795 68.7838 76.5693 68.6969 76.5381C65.6284 75.3271 65.5884 74.1541 63.1969 73.2316C62.3619 72.9096 61.3404 73.3201 61.7029 74.0956C62.2129 75.1861 62.9389 74.6906 64.3529 76.4786C64.7944 77.0361 64.8274 76.8836 66.9359 78.6286C67.3533 79.0044 67.8396 79.2959 68.3679 79.4871C69.0743 79.7161 69.7583 80.0181 70.4678 80.2336C70.5223 80.2501 76.0854 81.4191 78.6488 82.8291C80.9379 84.0881 83.8848 86.4221 86.3689 88.4186C87.3324 89.1931 89.7419 91.0186 89.9343 91.1811C90.4434 91.6716 89.8154 92.2841 89.0069 91.6356C82.4018 86.3356 81.5723 85.3856 78.9044 83.8256C76.2894 82.2981 70.1679 80.9781 68.8389 80.4866C65.4919 79.2491 68.1389 79.3311 64.4339 79.3801C62.7894 79.4016 50.5134 79.4301 43.4339 79.4166C29.1069 79.3876 27.2499 78.7556 26.3839 80.3051C25.9764 80.9324 25.4423 81.4677 24.8159 81.8766C24.0294 82.5631 23.6594 82.7836 22.9029 82.8951C22.7734 82.6781 16.7189 88.8256 13.4579 91.7766C12.9684 92.2191 12.3984 91.5376 13.0109 91.0301C13.8204 90.3591 15.0109 89.2801 16.8524 87.5216C23.8214 80.8571 17.3949 87.0336 22.4699 82.2051C21.8677 81.4156 21.1891 80.6876 20.4439 80.0316C20.1154 79.7246 19.6674 80.5086 18.4499 79.7406C17.1952 78.9286 16.0403 77.972 15.0089 76.8906C14.8744 76.8036 3.23835 85.9196 3.22785 85.9266C2.83735 86.2066 2.45985 85.7371 2.81935 85.3621C4.01935 84.1121 10.6904 79.4471 10.6104 79.2476C9.36835 79.0671 6.16835 79.3016 5.09085 79.0441C4.39085 78.8766 4.34335 78.0051 4.17285 76.8321C3.67285 73.4011 3.63035 74.9486 14.8359 59.7046C2.12335 59.7046 2.86135 59.6956 2.74635 59.4481C2.50385 58.9271 3.96085 59.0736 11.5124 59.0396C16.4234 59.0176 14.6879 59.6211 16.6679 57.2661C17.1849 56.6506 17.6824 56.8006 17.2324 56.5746C14.9024 55.4061 16.0144 52.9996 15.7544 26.6676C15.7464 25.8716 15.9074 11.6281 15.8944 11.2431C15.7474 6.88356 21.1214 8.28556 33.9389 8.24306C33.9564 8.24306 75.2228 8.17406 77.7423 8.35456C80.3153 8.53856 80.3709 9.00456 80.5924 10.4231C80.8699 12.2016 80.5849 36.1496 80.7849 46.4616C80.8008 47.2896 80.7579 48.6671 80.7598 49.4951C80.7679 53.0876 81.0598 54.8816 79.7693 56.2216C79.8413 56.3501 80.4694 56.2781 81.3109 57.2076C82.8919 58.9506 81.9493 58.1341 82.8529 59.0121C95.4369 59.0121 96.5744 58.5621 96.5029 59.2301C96.4594 59.6466 97.0029 59.6516 83.2364 59.6516C83.8824 60.5951 86.5909 63.8516 89.7218 68.6711C92.6718 73.2126 93.2219 73.9761 92.9219 76.6211C92.6249 79.3676 92.5719 78.9656 93.0179 79.1791ZM91.4093 75.1791C91.5311 75.1751 91.6504 75.144 91.7586 75.0881C91.8668 75.0322 91.9611 74.9529 92.0348 74.8558C92.1084 74.7588 92.1594 74.6466 92.1842 74.5274C92.2089 74.4081 92.2068 74.2849 92.1778 74.1666C90.9838 70.8976 85.1624 63.2056 83.0094 60.4006C79.8469 56.2796 80.8594 57.0251 75.8724 57.0756C74.9883 57.0846 29.1969 56.9166 29.1969 56.9166C17.6524 57.1886 17.8854 56.7011 16.9609 57.8616C16.7509 58.1251 5.93585 72.5411 5.49285 73.2041C4.87335 74.1306 4.60485 74.5981 5.14285 74.8041C5.74285 75.0366 12.1474 74.8241 12.1574 74.8241C14.4479 74.8586 14.4379 75.1526 14.8829 74.6521C15.6894 73.738 16.6005 72.9218 17.5974 72.2201C18.2029 71.7981 18.8234 71.5456 19.5474 71.9701C19.8119 72.1251 20.2019 71.6886 20.2134 71.6786C23.4209 68.8131 22.1779 70.2816 24.7869 66.2526C24.5294 66.2526 17.3559 66.3576 14.0869 66.2341C13.9579 66.2154 13.8359 66.1635 13.7331 66.0834C13.6303 66.0033 13.5501 65.8978 13.5005 65.7773C13.4509 65.6567 13.4336 65.5254 13.4502 65.3961C13.4668 65.2668 13.5169 65.1441 13.5954 65.0401C15.3204 62.4646 16.1484 61.4526 16.3929 61.1346C18.6969 58.1376 17.8224 58.6646 21.0454 58.6196C21.4044 58.6146 21.7674 58.6886 22.1229 58.6601C23.0964 58.5577 24.0758 58.5204 25.0544 58.5486C34.4109 59.0566 31.6544 58.5581 33.2484 58.2206C33.7869 58.1066 35.6174 58.1961 35.9804 58.6026C36.1304 58.7716 38.1029 57.8641 39.0404 57.9466C39.6638 57.9377 40.2731 58.132 40.7764 58.5001C41.0924 58.7761 78.1539 58.5611 78.7149 58.9086C80.0839 59.7586 82.6944 63.5296 83.6179 64.8586C83.6912 64.9815 83.7302 65.1219 83.7308 65.2651C83.7313 65.4082 83.6935 65.5489 83.6212 65.6725C83.5489 65.796 83.4447 65.8979 83.3196 65.9675C83.1945 66.0371 83.053 66.0718 82.9099 66.0681C76.5704 66.5826 76.3064 65.9181 76.9004 66.5181C77.9089 67.5386 78.6264 68.2616 80.8919 71.7756C81.7769 73.1481 82.3998 72.9966 83.1703 73.5671C85.8904 75.5836 83.0773 75.1896 91.4093 75.1771V75.1791ZM92.0183 78.6966C92.1313 77.6596 92.2344 76.7066 92.3419 75.7146C91.4499 76.0026 91.3154 75.9146 86.4244 75.9146C86.3789 75.9741 85.7683 75.6501 92.0183 78.6946V78.6966ZM80.7074 65.5196C84.6074 65.3596 82.9574 65.6971 80.3894 61.5866C80.0329 61.0161 79.5304 60.5391 79.1204 59.9991C78.4584 59.1276 78.6589 59.2711 70.1573 59.2711C70.2924 59.4546 69.9613 59.2126 72.1074 60.7116C72.2074 60.7826 72.0879 60.7686 74.5319 60.7686C74.2764 60.3621 73.9874 60.0376 74.2819 59.8571C74.6014 59.6636 74.7344 60.0861 75.1234 60.5351C75.2533 60.6851 75.2644 60.6461 77.7113 60.6721C77.9199 60.6721 78.0849 60.7551 78.0784 60.9886C78.0634 61.4971 76.9234 61.1886 75.6159 61.1886C76.6409 62.7346 76.6159 62.9021 77.0658 62.7711C77.678 62.6645 78.302 62.644 78.9199 62.7101C79.3459 62.7046 80.0799 62.6601 79.9954 63.0731C79.9034 63.5231 79.0759 63.1976 77.0954 63.3476C77.6954 64.2101 78.2344 64.7286 77.8373 64.9886C77.5023 65.2081 77.3739 64.8336 76.5674 63.6506C76.3834 63.3806 76.3929 63.4506 74.4114 63.6226C74.1184 63.6476 74.1469 63.6726 74.1054 63.7441C76.0684 65.6646 75.9794 65.6101 76.1054 65.6101C78.4504 65.6091 78.5274 65.6066 80.7074 65.5176V65.5196ZM80.1043 53.8881C80.2663 52.8806 80.1638 49.4251 80.1508 48.5816C80.0838 44.1946 80.1553 14.9816 79.9053 10.6116C79.8194 9.10356 79.0404 8.91156 75.4124 8.84806C71.2624 8.77406 38.9069 8.86906 31.8594 8.85606C25.6094 8.84456 20.0414 8.58606 18.4034 9.02956C16.0459 9.66756 16.5304 11.1011 16.4604 12.6846C16.3139 15.9846 16.6104 35.1956 16.4154 51.2381C16.3409 57.3381 17.0024 56.4431 25.5089 56.3836C26.9439 56.3731 75.2274 56.4006 78.2409 56.2711C79.5679 56.2121 79.9068 55.1106 80.1043 53.8861V53.8881ZM75.9869 62.9111C75.9574 62.7716 76.0984 62.9636 75.0049 61.4041C74.9309 61.2986 75.0118 61.3201 72.5678 61.3201C72.6329 61.4961 72.4464 61.1581 73.4964 62.8626C73.6839 63.1646 73.6879 63.0826 75.9869 62.9091V62.9111ZM67.7133 75.3261C68.9014 76.1521 68.5923 75.2461 68.5333 75.0791C67.8334 73.0986 66.7924 72.4141 65.5929 71.4581C63.2459 69.5876 63.2779 69.5366 62.9314 69.4786C60.9869 69.1546 60.8079 69.1411 60.2349 69.3396C58.8384 69.8236 57.4304 70.2116 56.4259 69.5646C55.5659 69.0111 55.4294 68.0111 56.3509 67.4576C57.2569 66.9131 58.6009 66.3481 57.7334 66.4196C53.6704 66.7531 46.0389 65.9256 46.2214 66.4696C46.5004 67.3031 45.6934 67.4951 45.4359 67.6446C44.1549 68.3871 42.2329 66.2256 41.1704 66.4706C40.1711 66.6477 39.248 67.1206 38.5204 67.8281C35.5604 70.9376 36.0959 70.4781 34.9554 72.1541C35.1339 72.4076 37.2869 71.2601 37.5654 71.0686C39.3109 69.8686 40.0814 67.9336 41.6434 67.7416C42.4044 67.6481 43.5434 68.3101 42.8434 69.5166C42.5934 69.9526 42.2839 70.3561 42.0389 70.7946C40.6774 73.2306 41.3109 72.6336 39.3129 74.9661C42.1034 74.9861 52.4629 74.9446 61.4304 74.9446C60.2174 73.3446 61.4069 72.5096 62.3359 72.3871C63.5784 72.2236 64.9163 73.3686 66.7358 74.6941C67.0418 74.9176 67.3624 75.0801 67.7133 75.3241V75.3261ZM66.3664 62.5891C66.8454 63.1506 67.4509 62.2516 69.0163 63.1131C68.3223 61.9131 67.2264 61.5226 65.6079 61.6686C65.8599 61.9731 66.1084 62.2836 66.3664 62.5871V62.5891ZM65.3664 59.2806C63.6024 59.2806 43.4454 59.2766 41.5579 59.3616C41.5874 59.4741 41.6054 59.5461 41.6239 59.6171C43.3874 59.7466 43.2534 59.6171 43.9359 59.6816C44.8979 59.8639 45.87 59.9889 46.8469 60.0561C47.4289 60.1101 48.0014 60.1926 48.2969 60.7746H49.5804C49.6844 60.2801 49.6889 59.8631 50.0404 59.9626C50.3149 60.0406 50.2449 60.1886 50.1844 60.7551C53.6344 60.7551 53.2704 61.0496 53.1784 60.2426C53.1684 60.1521 53.3014 59.8336 53.3894 59.8116C53.5324 59.7756 53.6754 59.8946 53.7139 60.0831C53.7474 60.2466 53.8284 60.4006 53.8534 60.5636C53.8994 60.8576 53.9974 60.7096 55.3184 60.6936C58.9184 60.6501 59.2239 60.6641 59.6099 60.7321C60.3459 60.8611 61.8309 59.8601 63.8734 60.8636C64.4574 61.1506 64.3734 61.0876 65.5409 61.0196C65.1688 60.2726 64.8239 59.9091 65.3684 59.2786L65.3664 59.2806ZM65.8889 78.7126C65.3964 78.1596 64.4359 77.6916 64.0109 77.1911C63.614 76.7372 63.1923 76.3055 62.7479 75.8981C62.4849 75.6511 62.3979 75.7531 59.5429 75.7156C58.3109 75.6991 51.1824 75.6911 43.4754 75.7316C36.6224 75.7681 39.1419 75.2641 37.1719 76.4351C35.2164 77.5976 34.8019 77.6981 29.8674 78.5791C29.8829 78.7391 34.6174 78.5536 38.7614 78.6591C46.5739 78.8566 52.6329 78.7036 65.8909 78.7106L65.8889 78.7126ZM63.5254 65.4126C63.445 65.2663 63.3502 65.1284 63.2424 65.0011C62.0269 63.8511 61.9589 63.8411 61.8099 63.8726C60.5244 64.1451 59.8819 64.5476 58.6599 64.2881C57.2896 64.0291 55.8936 63.9333 54.5009 64.0026C54.5502 64.3908 54.6216 64.7759 54.7149 65.1561C54.8054 65.6721 54.1874 65.8296 54.0954 65.3011C53.8779 64.0511 53.9454 64.0036 53.5684 64.0011C51.9484 63.9921 52.6269 63.9271 49.7289 63.9271C49.6454 65.2191 49.6889 65.3821 49.3994 65.4056C48.8419 65.4511 49.0574 64.5216 49.1494 63.9726C47.8194 63.8636 47.2494 63.8566 46.9779 63.8546C46.1919 63.8491 46.5639 63.3241 46.9729 63.3351C47.5962 63.2769 48.2239 63.2858 48.8454 63.3616C49.4019 63.4951 49.2994 63.1416 49.4534 61.3706C48.3184 61.2156 48.3709 61.1881 48.1559 61.7346C47.4359 63.5626 44.8304 62.9996 42.5649 62.9996C42.6509 63.1261 44.6569 64.8136 45.5104 65.5181C45.7104 65.6831 45.9604 65.5801 48.1674 65.6126C51.9674 65.6691 49.1559 65.8761 58.9939 65.7881C59.5588 65.5302 60.1728 65.3973 60.7939 65.3986C61.703 65.3079 62.6191 65.3121 63.5274 65.4111L63.5254 65.4126ZM57.0074 62.9941C57.0369 61.0741 62.7689 61.3286 54.0334 61.3286C54.1694 62.0402 54.2944 62.6947 54.4084 63.2921C57.6374 63.4181 57.0004 63.5266 57.0094 62.9926L57.0074 62.9941ZM53.8029 63.3396C53.6709 62.6646 53.5459 62.0301 53.4184 61.3771C50.5374 61.5456 50.1264 61.1856 50.0754 61.5181C49.9879 62.0876 49.9224 62.6616 49.8444 63.2806C51.2059 63.2276 52.4839 63.4971 53.8049 63.3381L53.8029 63.3396ZM46.8139 62.0776C47.4639 61.8556 47.8259 60.9841 47.3444 60.8946C46.3504 60.7101 45.6734 60.8946 44.8874 60.6016C44.2754 60.3731 42.9119 60.3791 41.4109 60.3901C39.0609 60.4066 39.4679 60.7901 35.7579 62.3351C33.9544 63.0851 33.8034 63.7481 33.4964 64.0696C33.1394 64.4426 32.8314 63.9196 33.0309 63.6456C34.5749 61.5256 35.8579 61.8156 38.7439 60.1596C39.4809 59.7371 39.8854 59.7676 40.7964 59.6471C39.7464 58.1691 38.3059 58.8391 36.8344 59.1946C35.7994 59.4446 35.6344 60.2946 34.7464 60.6331C33.3429 61.1656 33.0964 61.5481 31.7004 62.8136C31.3629 63.1196 30.7359 62.7871 31.1504 62.3331C33.5144 59.7591 34.6324 60.4141 35.4694 59.0631C33.4279 58.8946 33.3469 58.7631 32.6939 59.2526C31.8199 59.9101 30.3874 60.4291 29.1439 62.5651C28.5264 63.6261 28.2199 63.5046 27.2729 64.4121C25.2729 66.3291 26.0044 65.7546 24.0729 68.7796C23.6539 69.5161 23.0678 70.144 22.3619 70.6126C21.7296 71.19 21.1271 71.7993 20.5569 72.4381C20.2944 72.7066 20.6264 72.6246 21.9129 73.7676C22.5189 74.3061 23.9129 75.4016 23.6989 76.1591C23.4944 76.8916 23.8329 76.8491 23.9989 77.0156C25.6199 78.6556 25.5559 78.6356 25.7989 78.6596C27.6989 78.8461 28.3749 78.3521 29.7489 77.9986C33.8059 76.9536 35.0989 76.8346 36.1904 76.0861C36.7008 75.818 37.1887 75.5092 37.6494 75.1626C39.0399 73.8436 39.5349 74.0281 40.3899 72.3976C42.1329 69.0746 42.4979 69.1101 42.3239 68.7616C42.0194 68.1506 41.0024 68.6386 40.5664 69.1051C38.6314 71.1751 38.0384 71.7821 37.1779 72.1336C35.4839 72.8266 35.4039 73.0016 34.8554 72.9196C32.7209 72.5986 37.1819 68.3816 37.2284 68.2741C37.5009 67.6456 38.8879 66.3306 40.7074 65.8026C42.2674 65.3501 44.1844 67.6451 45.3574 66.8446C45.9374 66.4496 44.2119 65.6011 43.0544 64.3361C42.1894 63.3906 41.4879 63.4231 40.2114 63.5481C40.2009 63.5481 36.1239 64.6586 35.5879 65.1876C35.3967 65.3749 35.1888 65.5444 34.9669 65.6941C34.5939 65.9476 33.7969 65.1651 35.6264 64.3381C43.0654 60.9761 44.5239 62.8566 46.8159 62.0761L46.8139 62.0776ZM27.3274 60.7661C31.0999 60.5781 28.1239 61.6111 31.1854 59.3866C26.2204 59.3866 29.7694 59.1936 18.9354 59.2696C18.4924 59.2731 18.5679 59.0756 14.7774 64.4766C14.1459 65.3766 13.6274 65.5981 14.7439 65.6766C15.8134 65.7531 18.3914 65.7031 23.4534 65.7241C25.8504 65.7341 24.5084 66.2186 26.7149 63.8306C24.1524 63.8306 25.0649 63.6806 24.3649 65.1616C24.3373 65.2282 24.2851 65.2816 24.2191 65.3107C24.1532 65.3398 24.0786 65.3423 24.0108 65.3177C23.943 65.2932 23.8873 65.2435 23.8553 65.1789C23.8233 65.1143 23.8174 65.0399 23.8389 64.9711C23.9013 64.5822 24.0202 64.2045 24.1919 63.8501C22.8849 63.7051 23.7144 63.7241 20.9389 63.7001C19.9474 63.6911 20.1649 63.9541 19.4579 65.0541C19.3699 65.1911 19.2639 65.3596 19.0534 65.2486C18.6689 65.0461 18.9909 64.6891 19.5534 63.7356C17.7754 63.4331 17.6284 63.4486 17.5939 63.2406C17.5936 63.1945 17.6045 63.149 17.6257 63.1081C17.6468 63.0672 17.6776 63.032 17.7154 63.0056C18.2214 62.7246 18.4354 63.1286 19.7854 63.0736C20.1004 63.0606 20.8549 61.4661 20.9854 61.2031C18.7434 60.9791 18.1389 61.0196 18.5104 60.5991C18.7859 60.2871 19.2459 60.5201 19.6759 60.5291C21.4419 60.5671 21.3979 60.5791 21.5219 60.3621C21.8029 59.8681 21.9939 59.5731 22.2059 59.7476C22.4759 59.9701 22.3419 60.0631 22.0004 60.6511C26.4704 60.6511 25.3609 61.0791 26.0934 59.9191C26.2629 59.6506 26.6479 59.9126 26.5059 60.1996C26.4224 60.3691 26.3559 60.5496 26.2674 60.7676C26.6539 60.7676 26.9919 60.7811 27.3294 60.7646L27.3274 60.7661ZM29.0874 61.3661C26.1274 61.3661 26.0769 61.3376 26.0084 61.4771C25.7364 62.0371 25.4754 62.6031 25.2279 63.1326C28.4419 63.1316 27.6264 63.4941 29.0894 61.3651L29.0874 61.3661ZM25.4444 80.4331C25.8364 80.0996 25.4764 79.6556 25.3134 79.4051C24.4809 80.1146 23.6634 80.8111 22.8409 81.5096C22.9909 81.7096 23.1299 81.9036 23.2779 82.1046C24.0353 81.5935 24.7596 81.0349 25.4464 80.4321L25.4444 80.4331ZM24.6049 79.0951C24.6919 78.9951 24.7904 78.9106 24.7414 78.7556C24.7629 78.6711 24.4204 78.4056 24.2499 78.2366C23.7819 78.7866 22.6889 79.7121 21.9074 80.4461C22.0952 80.6379 22.2728 80.8395 22.4394 81.0501C23.0554 80.4601 24.5094 79.2086 24.6069 79.0941L24.6049 79.0951ZM23.9894 63.1706C24.6759 63.3096 24.5709 63.1556 25.4529 61.3106C22.2934 61.1991 22.8639 61.2891 21.9244 61.2491C21.5009 61.2311 21.5744 61.3166 20.6694 63.1141C23.3174 63.1131 23.4429 63.0591 23.9914 63.1696L23.9894 63.1706ZM23.8004 77.7966L23.2309 77.3251C21.7014 78.7846 22.3339 78.2021 20.8509 79.5166C21.0434 79.6776 21.2349 79.8391 21.4669 80.0336L23.8004 77.7966ZM21.1194 76.2566C21.3428 76.2222 21.5462 76.1081 21.692 75.9354C21.8379 75.7627 21.9163 75.5431 21.9129 75.3171C21.9021 75.0905 21.8116 74.875 21.6573 74.7087C21.5031 74.5423 21.295 74.4359 21.0699 74.4081C20.8342 74.4518 20.6195 74.5717 20.4585 74.7493C20.2976 74.9268 20.1993 75.1523 20.1789 75.3911C20.1998 75.6262 20.3076 75.8451 20.4812 76.0051C20.6548 76.1651 20.8818 76.2548 21.1179 76.2566H21.1194ZM19.9284 78.8951C20.2126 78.8733 20.48 78.7518 20.6834 78.5521C20.8869 78.3524 21.0133 78.0873 21.0404 77.8036C21.0249 77.56 20.9189 77.331 20.743 77.1617C20.5672 76.9925 20.3343 76.8952 20.0904 76.8891C19.8343 76.9056 19.5934 77.0164 19.4141 77.2C19.2348 77.3837 19.1298 77.6271 19.1194 77.8836C19.1012 78.123 19.1744 78.3604 19.3242 78.5481C19.474 78.7358 19.6893 78.8597 19.9269 78.8951H19.9284ZM19.5784 75.8576C19.5724 75.714 19.5217 75.5759 19.4333 75.4627C19.3448 75.3494 19.2232 75.2667 19.0854 75.2261C18.9228 75.2583 18.7726 75.3358 18.6521 75.4496C18.5316 75.5635 18.4457 75.7091 18.4044 75.8696C18.4175 76.0124 18.4808 76.146 18.583 76.2467C18.6853 76.3474 18.8198 76.4086 18.9629 76.4196C19.1148 76.4118 19.2594 76.3516 19.3718 76.2491C19.4843 76.1466 19.5576 76.0082 19.5794 75.8576H19.5784ZM19.4784 73.6641C19.4699 73.493 19.4065 73.3293 19.2974 73.1972C19.1884 73.0651 19.0397 72.9718 18.8734 72.9311C18.6761 72.9131 18.4789 72.9667 18.3179 73.0821C18.1568 73.1975 18.0427 73.367 17.9964 73.5596C17.975 73.6642 17.9763 73.7721 18 73.8762C18.0237 73.9803 18.0694 74.0781 18.134 74.1631C18.1986 74.2481 18.2806 74.3184 18.3745 74.3691C18.4684 74.4199 18.572 74.4501 18.6785 74.4576C18.785 74.4651 18.8919 74.4498 18.992 74.4126C19.0921 74.3755 19.1831 74.3175 19.259 74.2424C19.3348 74.1672 19.3938 74.0768 19.4319 73.9771C19.4699 73.8773 19.4863 73.7706 19.4799 73.6641H19.4784ZM18.2569 77.4176C18.2452 77.3045 18.1941 77.1992 18.1126 77.12C18.031 77.0408 17.9242 76.9929 17.8109 76.9846C17.6851 76.9923 17.5661 77.0437 17.4741 77.1297C17.3821 77.2158 17.323 77.3312 17.3069 77.4561C17.3293 77.5676 17.3884 77.6685 17.4747 77.7427C17.5611 77.8169 17.6697 77.8601 17.7834 77.8656C17.8993 77.8497 18.0074 77.7979 18.0926 77.7176C18.1777 77.6373 18.2357 77.5324 18.2584 77.4176H18.2569ZM17.6004 75.2716C17.586 75.1202 17.5358 74.9744 17.4537 74.8464C17.3716 74.7184 17.2601 74.6119 17.1285 74.5357C16.9969 74.4595 16.849 74.4159 16.6971 74.4085C16.5452 74.4011 16.3938 74.4301 16.2554 74.4931C15.2684 75.1096 15.6744 76.4576 16.6234 76.3796C17.2379 76.3286 17.5569 75.9616 17.6004 75.2716ZM14.2404 76.4161C14.4249 76.2721 14.4904 76.1546 14.4349 75.9446C14.3409 75.5906 14.6214 75.5531 13.1529 75.4916C13.1424 75.4916 7.22885 75.6231 4.67135 75.3336C5.00285 77.9231 4.86435 78.5406 5.84235 78.5681C7.63035 78.6181 9.11835 78.6471 11.3099 78.6076C11.7409 78.6001 11.9004 78.2431 14.2394 76.4161H14.2404Z" fill="#033651"/>
<path d="M78.3394 14.0223C78.5794 29.5928 78.3149 50.9858 78.1369 52.9108C78.0109 54.2728 73.5005 54.1708 19.0369 53.6788C18.8081 53.6753 18.5869 53.5965 18.4074 53.4544C18.228 53.3124 18.1004 53.1152 18.0444 52.8933C17.8569 52.1433 17.7149 35.0603 17.7149 35.0503C17.7549 22.1668 17.6419 16.9578 17.8014 14.6903C17.9154 13.0708 18.6354 12.4363 19.9514 12.3978C22.5514 12.1743 26.4984 12.5748 36.4204 12.4478C38.1079 12.4263 75.4034 12.3693 76.6564 12.4318C77.0867 12.4329 77.5004 12.598 77.8132 12.8935C78.1259 13.1891 78.3141 13.5928 78.3394 14.0223ZM77.6369 49.0498C77.8579 34.8433 77.749 14.8818 77.7164 14.2878C77.7259 14.1185 77.6981 13.9491 77.6348 13.7918C77.5715 13.6344 77.4744 13.4929 77.3504 13.3773C77.2263 13.2616 77.0784 13.1747 76.917 13.1226C76.7556 13.0705 76.5847 13.0545 76.4164 13.0758C70.2704 12.9633 21.7664 13.0138 20.8439 13.0293C19.1509 13.0568 18.4619 13.3638 18.4649 15.4393C18.4699 18.7288 18.5459 48.1848 18.6049 51.2893C18.7204 52.5208 18.3524 52.9123 20.0674 52.9638C23.5724 53.0693 35.4129 52.5898 75.1014 52.8378C77.8574 52.8558 77.5674 53.5168 77.6369 49.0498Z" fill="#033651"/>
<path d="M72.9842 30.6574C73.0592 31.3774 73.0967 34.9474 73.0522 36.8649C73.0332 37.6719 73.0742 38.1119 72.0782 38.1989C70.8527 38.3064 57.1717 38.2219 53.6987 38.2324C52.0617 38.2374 27.1072 38.2824 25.7862 38.1179C24.6897 37.9824 24.6622 37.7864 24.6432 36.4929C24.6307 35.6384 24.6202 31.3929 24.6847 30.6989C24.8167 29.2774 24.9532 29.8394 40.8897 29.7279C52.1137 29.6494 65.6897 29.6639 69.7307 29.6834C72.8162 29.6999 72.8807 29.6634 72.9842 30.6574ZM72.5342 36.3539C72.5842 35.1699 72.5487 32.9734 72.4532 31.0139C72.4237 30.4139 72.4632 30.2529 71.6797 30.1989C70.9597 30.1489 62.2687 30.1529 61.3327 30.1489C48.3782 30.1119 54.1112 30.3079 37.3227 30.1964C30.7187 30.1529 27.3597 30.1914 26.0427 30.2694C25.4862 30.3024 25.2527 30.3009 25.2087 30.8279C25.1352 31.7099 25.1212 34.9709 25.1587 36.4234C25.1807 37.3559 25.1302 37.6314 26.3122 37.6649C26.4122 37.6679 71.0992 37.8149 72.1342 37.6274C72.6102 37.5439 72.5162 36.8129 72.5362 36.3539H72.5342Z" fill="#033651"/>
<path d="M72.9842 42.0722C73.0592 42.7922 73.0967 46.3612 73.0522 48.2787C73.0332 49.0867 73.0742 49.5257 72.0782 49.6127C70.8527 49.7202 57.1717 49.6357 53.6987 49.6462C52.2792 49.6502 27.1352 49.6962 25.7862 49.5317C24.6897 49.3962 24.6622 49.2012 24.6432 47.9067C24.6307 47.0567 24.6202 42.8067 24.6847 42.1137C24.8162 40.6967 24.9322 41.2532 40.8897 41.1427C52.1137 41.0652 65.6897 41.0767 69.7307 41.0972C72.7957 41.1127 72.8802 41.0732 72.9842 42.0722ZM72.5342 47.7677C72.5842 46.5837 72.5487 44.3872 72.4532 42.4277C72.4237 41.8277 72.4532 41.6502 71.6707 41.5967C70.8117 41.5377 62.5667 41.5677 61.3327 41.5642C48.3782 41.5277 54.1112 41.7232 37.3227 41.6117C30.7187 41.5682 27.3597 41.6087 26.0427 41.6857C25.4862 41.7187 25.2527 41.7162 25.2087 42.2442C25.1352 43.1262 25.1212 46.3862 25.1587 47.8387C25.1807 48.7712 25.1302 49.0472 26.3122 49.0812C26.4272 49.0847 71.1087 49.2267 72.1342 49.0437C72.6107 48.9587 72.5162 48.2282 72.5362 47.7677H72.5342Z" fill="#033651"/>
<path d="M55.4849 18.2915C55.5944 18.0785 56.1729 18.3865 56.0919 18.587C55.8164 19.2675 55.1194 20.4505 54.9494 20.7715C54.8464 20.9665 54.6534 20.865 54.5229 20.792C54.4449 20.7805 53.4529 20.2525 52.4154 19.7145C52.2849 19.6465 52.3654 19.3725 52.4744 19.241C52.5579 19.141 52.6314 19.141 52.7559 19.1985C53.1294 19.3685 53.8519 19.7365 54.0344 19.843C54.1794 19.928 54.1634 19.8175 54.1399 19.702C53.8203 18.2834 52.9579 17.0465 51.7374 16.256C49.6524 14.927 46.1874 15.306 44.4269 16.9795C43.8467 17.5529 43.3953 18.2434 43.1027 19.0049C42.8102 19.7664 42.6833 20.5816 42.7304 21.396C42.7504 22.9114 43.3694 24.3574 44.4522 25.4179C45.5349 26.4784 46.9934 27.0673 48.5089 27.056C51.3864 26.949 53.6279 25.19 54.1854 22.456C54.211 22.3223 54.2507 22.1918 54.3039 22.0665C54.3639 21.951 54.5594 21.9665 54.6119 21.9765C54.9199 22.0355 54.8834 22.262 54.8819 22.2965C54.8713 22.4749 54.845 22.6521 54.8034 22.826C54.4665 24.242 53.6566 25.5007 52.5075 26.394C51.3583 27.2873 49.9388 27.7618 48.4834 27.739C47.6179 27.7388 46.7612 27.565 45.9641 27.2279C45.1669 26.8908 44.4455 26.3971 43.8426 25.7763C43.2396 25.1554 42.7673 24.4198 42.4536 23.6132C42.1399 22.8065 41.9913 21.9451 42.0164 21.08C42.1079 18.29 43.6544 16.0475 46.2444 15.1925C49.7314 14.0425 53.5444 15.2955 54.6974 19.248C54.7194 19.324 54.7474 19.386 54.7659 19.451C54.8349 19.6755 54.8799 19.466 55.4849 18.2915Z" fill="#033651"/>
<path d="M51.681 23.9282C51.7425 24.3207 51.602 24.4582 51.386 24.4722C51.286 24.4792 46.8805 24.5002 45.8265 24.4817C45.1565 24.4697 45.305 24.0642 45.3715 23.5817C45.5375 22.3762 45.8435 19.7722 45.853 19.6817C45.903 19.1952 46.15 19.3502 46.626 19.2872C46.7135 19.2757 46.709 19.2517 46.7205 19.0937C46.8065 17.9092 47.317 17.0757 48.4955 17.0757C49.674 17.0757 50.1845 17.9057 50.271 19.0937C50.283 19.2517 50.2775 19.2827 50.3655 19.2872C51.0355 19.3217 51.0515 19.2372 51.138 19.6817C51.1585 19.7847 51.557 23.1317 51.681 23.9282ZM49.3175 23.4782C49.5535 23.4697 49.5775 23.3472 49.511 23.1387C49.414 22.8342 49.23 22.1037 49.07 21.6617C49.0637 21.6441 49.0641 21.6249 49.071 21.6076C49.0779 21.5903 49.0909 21.5761 49.1075 21.5677C49.2411 21.4961 49.3493 21.3851 49.4174 21.2496C49.4854 21.1142 49.5099 20.9611 49.4875 20.8112C49.413 20.2612 49.1145 20.0037 48.465 20.0112C48.2733 19.9841 48.0781 20.0233 47.9117 20.1223C47.7454 20.2212 47.6177 20.374 47.55 20.5553C47.4822 20.7367 47.4784 20.9357 47.5391 21.1195C47.5999 21.3033 47.7215 21.4609 47.884 21.5662C47.9005 21.5748 47.9133 21.589 47.9202 21.6062C47.9271 21.6235 47.9275 21.6426 47.9215 21.6602C47.764 22.1032 47.5775 22.8332 47.4805 23.1372C47.4075 23.3672 47.4305 23.4757 47.74 23.4777C47.9035 23.4822 49.1575 23.4862 49.3175 23.4802V23.4782ZM48.9595 19.2887C49.081 19.2862 49.343 19.3192 49.3365 19.1772C49.311 18.6227 49.2335 18.1102 48.6795 17.9942C48.5581 17.9689 48.4329 17.9689 48.3115 17.9942C47.757 18.1102 47.6805 18.6217 47.655 19.1772C47.6485 19.3192 47.9105 19.2862 48.032 19.2887C48.169 19.2932 48.8215 19.2932 48.9595 19.2907V19.2887Z" fill="#033651"/>
<path d="M46.6006 10.8315C46.7216 9.43599 48.2776 9.82399 48.1256 10.8745C47.9736 11.925 47.0196 11.671 46.7141 11.1795C46.6626 11.0684 46.6245 10.9516 46.6006 10.8315Z" fill="#033651"/>
</svg>
