<svg width="50" height="50" viewBox="0 0 50 50" fill="none" xmlns="http://www.w3.org/2000/svg">
<path d="M37.5 20.8332V18.7498C37.5 18.1973 37.2805 17.6674 36.8898 17.2767C36.4991 16.886 35.9692 16.6665 35.4167 16.6665H29.1667L25 20.8332H8.33333C7.7808 20.8332 7.25089 21.0527 6.86019 21.4434C6.46949 21.8341 6.25 22.364 6.25 22.9165V37.4998C6.25 38.0524 6.46949 38.5823 6.86019 38.973C7.25089 39.3637 7.7808 39.5832 8.33333 39.5832H22.9167" stroke="#006CA3" stroke-width="2" stroke-linecap="round" stroke-linejoin="round"/>
<path d="M29.167 16.6667L25.0003 20.8333H10.417V8.33333C10.417 7.7808 10.6365 7.25089 11.0272 6.86019C11.4179 6.46949 11.9478 6.25 12.5003 6.25H31.2503C31.8029 6.25 32.3328 6.46949 32.7235 6.86019C33.1142 7.25089 33.3337 7.7808 33.3337 8.33333V16.6667H29.167ZM37.5003 29.1667L43.7503 31.25C43.7503 39.5833 42.4587 41.875 37.5003 43.75C32.542 41.875 31.2503 39.5833 31.2503 31.25L37.5003 29.1667Z" stroke="#006CA3" stroke-width="2" stroke-linecap="round" stroke-linejoin="round"/>
</svg>
