<svg width="50" height="50" viewBox="0 0 50 50" fill="none" xmlns="http://www.w3.org/2000/svg">
<path d="M31.25 25C31.25 26.2361 30.8834 27.4445 30.1967 28.4723C29.5099 29.5001 28.5338 30.3012 27.3918 30.7742C26.2497 31.2473 24.9931 31.3711 23.7807 31.1299C22.5683 30.8887 21.4547 30.2935 20.5806 29.4194C19.7065 28.5453 19.1112 27.4317 18.8701 26.2193C18.6289 25.0069 18.7527 23.7503 19.2258 22.6082C19.6988 21.4662 20.4999 20.4901 21.5277 19.8033C22.5555 19.1166 23.7639 18.75 25 18.75C26.6576 18.75 28.2473 19.4085 29.4194 20.5806C30.5915 21.7527 31.25 23.3424 31.25 25ZM41.6667 20.8333H40.4375C40.0068 20.8316 39.5873 20.6965 39.2366 20.4465C38.8859 20.1965 38.6213 19.844 38.4792 19.4375C38.2938 19.0473 38.2343 18.6091 38.309 18.1836C38.3836 17.7581 38.5887 17.3663 38.8958 17.0625L39.75 16.2083C39.9453 16.0147 40.1003 15.7842 40.206 15.5304C40.3118 15.2765 40.3662 15.0042 40.3662 14.7292C40.3662 14.4541 40.3118 14.1818 40.206 13.928C40.1003 13.6741 39.9453 13.4437 39.75 13.25L36.7917 10.2708C36.598 10.0756 36.3676 9.92058 36.1137 9.81481C35.8598 9.70904 35.5875 9.65459 35.3125 9.65459C35.0375 9.65459 34.7652 9.70904 34.5113 9.81481C34.2574 9.92058 34.027 10.0756 33.8333 10.2708L32.9792 11.125C32.6754 11.4321 32.2836 11.6372 31.8581 11.7119C31.4326 11.7865 30.9944 11.727 30.6042 11.5417C30.1865 11.4055 29.8225 11.1407 29.5644 10.7853C29.3062 10.4298 29.167 10.0018 29.1667 9.5625V8.33333C29.1667 7.7808 28.9472 7.25089 28.5565 6.86019C28.1658 6.46949 27.6359 6.25 27.0833 6.25H22.9167C22.3641 6.25 21.8342 6.46949 21.4435 6.86019C21.0528 7.25089 20.8333 7.7808 20.8333 8.33333V9.5625C20.8316 9.99316 20.6965 10.4127 20.4465 10.7634C20.1965 11.1141 19.844 11.3787 19.4375 11.5208V11.5208C19.0473 11.7062 18.6091 11.7657 18.1836 11.691C17.7581 11.6164 17.3663 11.4113 17.0625 11.1042L16.2083 10.25C16.0147 10.0547 15.7842 9.89974 15.5304 9.79398C15.2765 9.68821 15.0042 9.63375 14.7292 9.63375C14.4541 9.63375 14.1818 9.68821 13.928 9.79398C13.6741 9.89974 13.4437 10.0547 13.25 10.25L10.2708 13.2083C10.0756 13.402 9.92058 13.6324 9.81481 13.8863C9.70904 14.1402 9.65459 14.4125 9.65459 14.6875C9.65459 14.9625 9.70904 15.2348 9.81481 15.4887C9.92058 15.7426 10.0756 15.973 10.2708 16.1667L11.125 17.0208C11.4321 17.3246 11.6372 17.7164 11.7119 18.1419C11.7865 18.5674 11.727 19.0056 11.5417 19.3958C11.3996 19.8024 11.1349 20.1549 10.7842 20.4048C10.4335 20.6548 10.014 20.7899 9.58333 20.7917H8.33333C7.7808 20.7917 7.25089 21.0112 6.86019 21.4019C6.46949 21.7926 6.25 22.3225 6.25 22.875V27.0417C6.25 27.5942 6.46949 28.1241 6.86019 28.5148C7.25089 28.9055 7.7808 29.125 8.33333 29.125H9.5625C9.99316 29.1267 10.4127 29.2619 10.7634 29.5118C11.1141 29.7618 11.3787 30.1143 11.5208 30.5208V30.5208C11.7062 30.911 11.7657 31.3492 11.691 31.7747C11.6164 32.2002 11.4113 32.592 11.1042 32.8958L10.25 33.75C10.0547 33.9437 9.89974 34.1741 9.79398 34.428C9.68821 34.6818 9.63375 34.9541 9.63375 35.2292C9.63375 35.5042 9.68821 35.7765 9.79398 36.0304C9.89974 36.2842 10.0547 36.5147 10.25 36.7083L13.1875 39.6458C13.3812 39.8411 13.6116 39.9961 13.8655 40.1019C14.1193 40.2076 14.3916 40.2621 14.6667 40.2621C14.9417 40.2621 15.214 40.2076 15.4679 40.1019C15.7217 39.9961 15.9522 39.8411 16.1458 39.6458L17 38.7917C17.3038 38.4845 17.6956 38.2795 18.1211 38.2048C18.5466 38.1302 18.9848 38.1896 19.375 38.375C19.7815 38.5171 20.134 38.7817 20.384 39.1324C20.634 39.4831 20.7691 39.9027 20.7708 40.3333V41.6667C20.7708 42.2192 20.9903 42.7491 21.381 43.1398C21.7717 43.5305 22.3016 43.75 22.8542 43.75H27.0208C27.5734 43.75 28.1033 43.5305 28.494 43.1398C28.8847 42.7491 29.1042 42.2192 29.1042 41.6667V40.4375C29.1059 40.0068 29.241 39.5873 29.491 39.2366C29.741 38.8859 30.0935 38.6213 30.5 38.4792C30.8902 38.2938 31.3284 38.2343 31.7539 38.309C32.1794 38.3836 32.5712 38.5887 32.875 38.8958L33.7292 39.75C33.9228 39.9453 34.1533 40.1003 34.4071 40.206C34.661 40.3118 34.9333 40.3662 35.2083 40.3662C35.4834 40.3662 35.7557 40.3118 36.0095 40.206C36.2634 40.1003 36.4938 39.9453 36.6875 39.75L39.625 36.8125C39.8203 36.6188 39.9753 36.3884 40.081 36.1345C40.1868 35.8807 40.2412 35.6084 40.2412 35.3333C40.2412 35.0583 40.1868 34.786 40.081 34.5321C39.9753 34.2783 39.8203 34.0478 39.625 33.8542L38.7708 33C38.4637 32.6962 38.2586 32.3044 38.184 31.8789C38.1093 31.4534 38.1688 31.0152 38.3542 30.625V30.625C38.4963 30.2185 38.7609 29.866 39.1116 29.616C39.4623 29.366 39.8818 29.2309 40.3125 29.2292H41.6667C42.2192 29.2292 42.7491 29.0097 43.1398 28.619C43.5305 28.2283 43.75 27.6984 43.75 27.1458V22.9167C43.75 22.3641 43.5305 21.8342 43.1398 21.4435C42.7491 21.0528 42.2192 20.8333 41.6667 20.8333Z" stroke="#006CA3" stroke-width="2" stroke-linecap="round" stroke-linejoin="round"/>
</svg>
